<svg width="122" height="98" viewBox="0 0 122 98" fill="none" xmlns="http://www.w3.org/2000/svg">
<path d="M81.2339 1.44461C73.1579 1.44461 66.6121 7.99048 66.6121 16.0665C66.6121 24.1425 73.1579 30.6884 81.2339 30.6884C89.31 30.6884 95.8558 24.1425 95.8558 16.0665C95.8558 7.99048 89.31 1.44461 81.2339 1.44461ZM81.2339 24.9469C76.3292 24.9469 72.3536 20.9713 72.3536 16.0665C72.3536 11.1617 76.3292 7.18612 81.2339 7.18612C86.1387 7.18612 90.1143 11.1617 90.1143 16.0665C90.1143 20.9713 86.1387 24.9469 81.2339 24.9469Z" fill="#FFC200"/>
<path d="M85.9676 93.8981C76.343 93.8981 67.2939 90.149 60.4868 83.3442L60.8127 83.0183C74.6834 96.889 97.2496 96.889 111.12 83.0183C117.839 76.2991 121.54 67.3656 121.54 57.8657C121.54 48.3659 117.839 39.4301 111.12 32.7132L111.446 32.3872C118.253 39.1943 122 48.2434 122 57.8681C122 67.4927 118.251 76.5418 111.446 83.3489C104.641 90.1513 95.5923 93.8981 85.9676 93.8981Z" fill="#0B315E"/>
<path d="M85.9677 91.4041C77.3739 91.4041 68.7825 88.1335 62.2412 81.5922L62.5671 81.2663C75.4693 94.1685 96.4637 94.1685 109.368 81.2663C122.27 68.3641 122.27 47.3674 109.368 34.4652L109.694 34.1393C122.777 47.2218 122.777 68.5097 109.694 81.5945C103.153 88.1335 94.5591 91.4041 85.9677 91.4041Z" fill="#0B315E"/>
<path d="M85.9676 88.9401C77.6674 88.9401 69.8641 85.7065 63.9932 79.8379L64.3191 79.512C70.1022 85.2951 77.7899 88.4779 85.9653 88.4779C94.143 88.4779 101.831 85.2928 107.611 79.512C113.395 73.7288 116.577 66.0412 116.577 57.8657C116.577 49.688 113.392 42.0003 107.611 36.2195L107.937 35.8936C113.806 41.7623 117.04 49.5678 117.04 57.8681C117.04 66.1683 113.806 73.9715 107.937 79.8425C102.071 85.7065 94.2678 88.9401 85.9676 88.9401Z" fill="#0B315E"/>
<path d="M85.9676 86.4461C78.6451 86.4461 71.3226 83.6586 65.7476 78.0835L66.0735 77.7576C77.0433 88.7275 94.8919 88.7275 105.862 77.7576C116.832 66.7877 116.832 48.9391 105.862 37.9693L106.188 37.6434C117.338 48.7935 117.338 66.9357 106.188 78.0835C100.613 83.6586 93.2901 86.4461 85.9676 86.4461Z" fill="#0B315E"/>
<path d="M85.9678 83.9683C79.2809 83.9683 72.5918 81.4235 67.4998 76.3315L67.8257 76.0056C77.8294 86.0093 94.1039 86.0093 104.105 76.0056C114.109 66.0019 114.109 49.7273 104.105 39.7259L104.431 39.4C114.613 49.5817 114.613 66.1521 104.431 76.3338C99.3438 81.4235 92.6547 83.9683 85.9678 83.9683Z" fill="#0B315E"/>
<path d="M85.9676 81.4905C79.9141 81.4905 73.8605 79.186 69.2539 74.5794L69.5798 74.2535C78.6151 83.2888 93.3178 83.2888 102.353 74.2535C106.731 69.8757 109.142 64.0557 109.142 57.8657C109.142 51.6758 106.731 45.8557 102.353 41.478L102.679 41.152C107.145 45.6153 109.602 51.5533 109.602 57.8657C109.602 64.1782 107.142 70.1161 102.679 74.5794C98.0724 79.186 92.0211 81.4905 85.9676 81.4905Z" fill="#0B315E"/>
<path d="M85.9678 79.0127C80.5499 79.0127 75.1319 76.9509 71.0061 72.8251L71.332 72.4992C79.4011 80.5683 92.5298 80.5683 100.599 72.4992C108.668 64.4301 108.668 51.3014 100.599 43.2323L100.925 42.9064C109.174 51.1558 109.174 64.578 100.925 72.8274C96.8036 76.9486 91.3857 79.0127 85.9678 79.0127Z" fill="#0B315E"/>
<path d="M100.344 30.73L99.0107 32.0613V30.73H100.344Z" fill="#0B315E"/>
<path d="M102.813 30.73L99.0107 34.5322V33.2009L101.482 30.73H102.813Z" fill="#0B315E"/>
<path d="M110.205 30.73L99.0107 41.9218V40.6112L108.892 30.73H110.205Z" fill="#0B315E"/>
<path d="M107.755 30.73L99.0107 39.4717V38.1403L106.423 30.73H107.755Z" fill="#0B315E"/>
<path d="M105.284 30.73L99.0107 37.0031V35.6694L103.953 30.73H105.284Z" fill="#0B315E"/>
<path d="M60.2211 97.275C85.7585 97.275 106.461 76.5729 106.461 51.0356C106.461 25.4982 85.7585 4.79614 60.2211 4.79614C34.6838 4.79614 13.9817 25.4982 13.9817 51.0356C13.9817 76.5729 34.6838 97.275 60.2211 97.275Z" fill="url(#paint0_radial_51_103)"/>
<path d="M49.6373 90.4171C74.6053 90.4171 94.8458 70.1766 94.8458 45.2086C94.8458 20.2406 74.6053 0 49.6373 0C24.6693 0 4.42871 20.2406 4.42871 45.2086C4.42871 70.1766 24.6693 90.4171 49.6373 90.4171Z" fill="#F9F5EF"/>
<path d="M50.3076 10.6116C50.6267 10.6116 50.8854 10.3529 50.8854 10.0338C50.8854 9.71462 50.6267 9.45591 50.3076 9.45591C49.9884 9.45591 49.7297 9.71462 49.7297 10.0338C49.7297 10.3529 49.9884 10.6116 50.3076 10.6116Z" fill="#114A82"/>
<path d="M56.3472 11.1132C56.0351 11.1132 55.7832 10.8612 55.7832 10.5492C55.7832 10.2372 56.0351 9.98521 56.3472 9.98521C56.6592 9.98521 56.9112 10.2372 56.9112 10.5492C56.9112 10.8612 56.6592 11.1132 56.3472 11.1132Z" fill="#114A82"/>
<path d="M62.2088 12.6479C62.5126 12.6479 62.7589 12.4016 62.7589 12.0978C62.7589 11.794 62.5126 11.5477 62.2088 11.5477C61.905 11.5477 61.6587 11.794 61.6587 12.0978C61.6587 12.4016 61.905 12.6479 62.2088 12.6479Z" fill="#114A82"/>
<path d="M67.7123 15.172C67.4164 15.172 67.176 14.9316 67.176 14.6357C67.176 14.3399 67.4164 14.0995 67.7123 14.0995C68.0081 14.0995 68.2485 14.3399 68.2485 14.6357C68.2508 14.9316 68.0104 15.172 67.7123 15.172Z" fill="#114A82"/>
<path d="M72.7003 18.6021C72.4114 18.6021 72.178 18.3686 72.178 18.0797C72.178 17.7908 72.4114 17.5573 72.7003 17.5573C72.9893 17.5573 73.2227 17.7908 73.2227 18.0797C73.2227 18.3686 72.9893 18.6021 72.7003 18.6021Z" fill="#114A82"/>
<path d="M77.0247 22.8366C77.3069 22.8366 77.5356 22.6079 77.5356 22.3258C77.5356 22.0436 77.3069 21.8149 77.0247 21.8149C76.7426 21.8149 76.5139 22.0436 76.5139 22.3258C76.5139 22.6079 76.7426 22.8366 77.0247 22.8366Z" fill="#114A82"/>
<path d="M80.559 27.746C80.2839 27.746 80.062 27.5241 80.062 27.249C80.062 26.974 80.2839 26.7521 80.559 26.7521C80.834 26.7521 81.0559 26.974 81.0559 27.249C81.0559 27.5241 80.834 27.746 80.559 27.746Z" fill="#114A82"/>
<path d="M83.6767 32.7908C83.7193 32.5274 83.5402 32.2794 83.2768 32.2369C83.0134 32.1944 82.7655 32.3735 82.723 32.6369C82.6805 32.9003 82.8595 33.1482 83.1229 33.1907C83.3863 33.2332 83.6342 33.0542 83.6767 32.7908Z" fill="#114A82"/>
<path d="M84.8513 39.0071C84.5924 39.0071 84.3821 38.7967 84.3821 38.5379C84.3821 38.279 84.5924 38.0686 84.8513 38.0686C85.1102 38.0686 85.3205 38.279 85.3205 38.5379C85.3205 38.7967 85.1102 39.0071 84.8513 39.0071Z" fill="#114A82"/>
<path d="M85.4776 45.0213C85.2256 45.0213 85.0222 44.8179 85.0222 44.566C85.0222 44.314 85.2256 44.1106 85.4776 44.1106C85.7295 44.1106 85.9329 44.314 85.9329 44.566C85.9329 44.8179 85.7295 45.0213 85.4776 45.0213Z" fill="#114A82"/>
<path d="M85.0709 51.0564C84.8259 51.0564 84.6294 50.8576 84.6294 50.6149C84.6294 50.3699 84.8282 50.1734 85.0709 50.1734C85.3159 50.1734 85.5123 50.3722 85.5123 50.6149C85.5123 50.8576 85.3136 51.0564 85.0709 51.0564Z" fill="#114A82"/>
<path d="M83.6307 56.9296C83.395 56.9296 83.2031 56.7378 83.2031 56.502C83.2031 56.2663 83.395 56.0744 83.6307 56.0744C83.8665 56.0744 84.0583 56.2663 84.0583 56.502C84.0583 56.7378 83.8665 56.9296 83.6307 56.9296Z" fill="#114A82"/>
<path d="M81.1945 62.4677C80.9657 62.4677 80.7808 62.2828 80.7808 62.054C80.7808 61.8252 80.9657 61.6403 81.1945 61.6403C81.4233 61.6403 81.6082 61.8252 81.6082 62.054C81.6082 62.2805 81.4233 62.4677 81.1945 62.4677Z" fill="#114A82"/>
<path d="M77.8408 67.502C77.6189 67.502 77.4409 67.3217 77.4409 67.1021C77.4409 66.8802 77.6212 66.7022 77.8408 66.7022C78.0627 66.7022 78.2407 66.8825 78.2407 67.1021C78.2407 67.3217 78.0627 67.502 77.8408 67.502Z" fill="#114A82"/>
<path d="M73.6735 71.889C73.4585 71.889 73.2852 71.7156 73.2852 71.5007C73.2852 71.2857 73.4585 71.1123 73.6735 71.1123C73.8884 71.1123 74.0618 71.2857 74.0618 71.5007C74.0595 71.7156 73.8861 71.889 73.6735 71.889Z" fill="#114A82"/>
<path d="M68.8146 75.4994C68.6089 75.4994 68.4402 75.333 68.4402 75.1249C68.4402 74.9169 68.6066 74.7505 68.8146 74.7505C69.0227 74.7505 69.1891 74.9169 69.1891 75.1249C69.1891 75.333 69.0203 75.4994 68.8146 75.4994Z" fill="#114A82"/>
<path d="M63.4062 78.2222C63.2075 78.2222 63.0457 78.0604 63.0457 77.8616C63.0457 77.6628 63.2075 77.501 63.4062 77.501C63.605 77.501 63.7668 77.6628 63.7668 77.8616C63.7668 78.0604 63.605 78.2222 63.4062 78.2222Z" fill="#114A82"/>
<path d="M57.607 79.9696C57.4151 79.9696 57.2603 79.8147 57.2603 79.6229C57.2603 79.4311 57.4151 79.2762 57.607 79.2762C57.7988 79.2762 57.9537 79.4311 57.9537 79.6229C57.9537 79.8147 57.7988 79.9696 57.607 79.9696Z" fill="#114A82"/>
<path d="M51.5902 80.6931C51.4053 80.6931 51.2573 80.5451 51.2573 80.3602C51.2573 80.1753 51.4053 80.0274 51.5902 80.0274C51.7751 80.0274 51.923 80.1753 51.923 80.3602C51.923 80.5451 51.7751 80.6931 51.5902 80.6931Z" fill="#114A82"/>
<path d="M45.537 80.381C45.3613 80.381 45.218 80.2377 45.218 80.0621C45.218 79.8864 45.3613 79.7431 45.537 79.7431C45.7127 79.7431 45.856 79.8864 45.856 80.0621C45.856 80.2377 45.7127 80.381 45.537 80.381Z" fill="#114A82"/>
<path d="M39.6239 79.0358C39.4552 79.0358 39.3188 78.8994 39.3188 78.7307C39.3188 78.562 39.4552 78.4256 39.6239 78.4256C39.7927 78.4256 39.9291 78.562 39.9291 78.7307C39.9291 78.8994 39.7927 79.0358 39.6239 79.0358Z" fill="#114A82"/>
<path d="M34.0283 76.6874C33.8665 76.6874 33.7371 76.5557 33.7371 76.3962C33.7371 76.2344 33.8688 76.105 34.0283 76.105C34.1901 76.105 34.3195 76.2367 34.3195 76.3962C34.3218 76.558 34.1901 76.6874 34.0283 76.6874Z" fill="#114A82"/>
<path d="M28.9202 73.4122C28.7653 73.4122 28.6428 73.2874 28.6428 73.1348C28.6428 72.9823 28.7676 72.8574 28.9202 72.8574C29.0727 72.8574 29.1976 72.9823 29.1976 73.1348C29.1976 73.2874 29.075 73.4122 28.9202 73.4122Z" fill="#114A82"/>
<path d="M24.4428 69.3118C24.5896 69.3118 24.7086 69.1928 24.7086 69.046C24.7086 68.8992 24.5896 68.7802 24.4428 68.7802C24.296 68.7802 24.177 68.8992 24.177 69.046C24.177 69.1928 24.296 69.3118 24.4428 69.3118Z" fill="#114A82"/>
<path d="M50.3076 13.3182C50.6267 13.3182 50.8854 13.0595 50.8854 12.7404C50.8854 12.4213 50.6267 12.1625 50.3076 12.1625C49.9884 12.1625 49.7297 12.4213 49.7297 12.7404C49.7297 13.0595 49.9884 13.3182 50.3076 13.3182Z" fill="#114A82"/>
<path d="M56.2756 13.8452C55.9681 13.8452 55.7185 13.5956 55.7185 13.2882C55.7185 12.9808 55.9681 12.7311 56.2756 12.7311C56.583 12.7311 56.8326 12.9808 56.8326 13.2882C56.8326 13.5956 56.583 13.8452 56.2756 13.8452Z" fill="#114A82"/>
<path d="M62.04 15.4586C62.3349 15.4586 62.574 15.2195 62.574 14.9247C62.574 14.6298 62.3349 14.3907 62.04 14.3907C61.7452 14.3907 61.5061 14.6298 61.5061 14.9247C61.5061 15.2195 61.7452 15.4586 62.04 15.4586Z" fill="#114A82"/>
<path d="M67.4025 18.1121C67.1205 18.1121 66.8894 17.8832 66.8894 17.5989C66.8894 17.317 67.1182 17.0858 67.4025 17.0858C67.6845 17.0858 67.9157 17.3146 67.9157 17.5989C67.9134 17.8832 67.6845 18.1121 67.4025 18.1121Z" fill="#114A82"/>
<path d="M72.1802 21.704C71.9098 21.704 71.6902 21.4844 71.6902 21.214C71.6902 20.9435 71.9098 20.7239 72.1802 20.7239C72.4506 20.7239 72.6702 20.9435 72.6702 21.214C72.6702 21.4844 72.4529 21.704 72.1802 21.704Z" fill="#114A82"/>
<path d="M76.2182 26.1095C75.9594 26.1095 75.749 25.8992 75.749 25.6403C75.749 25.3814 75.9594 25.1711 76.2182 25.1711C76.4771 25.1711 76.6874 25.3814 76.6874 25.6403C76.6874 25.8992 76.4771 26.1095 76.2182 26.1095Z" fill="#114A82"/>
<path d="M79.378 31.1807C79.1307 31.1807 78.9319 30.9796 78.9319 30.7346C78.9319 30.4873 79.133 30.2885 79.378 30.2885C79.623 30.2885 79.8241 30.4896 79.8241 30.7346C79.8241 30.9796 79.6253 31.1807 79.378 31.1807Z" fill="#114A82"/>
<path d="M81.5435 36.7442C81.7783 36.7442 81.9688 36.5538 81.9688 36.3189C81.9688 36.084 81.7783 35.8936 81.5435 35.8936C81.3086 35.8936 81.1182 36.084 81.1182 36.3189C81.1182 36.5538 81.3086 36.7442 81.5435 36.7442Z" fill="#114A82"/>
<path d="M82.6392 42.6152C82.4173 42.6152 82.2371 42.4349 82.2371 42.213C82.2371 41.9911 82.4173 41.8108 82.6392 41.8108C82.8611 41.8108 83.0414 41.9911 83.0414 42.213C83.0414 42.4349 82.8611 42.6152 82.6392 42.6152Z" fill="#114A82"/>
<path d="M82.6392 48.5855C82.4288 48.5855 82.2578 48.4145 82.2578 48.2041C82.2578 47.9938 82.4288 47.8227 82.6392 47.8227C82.8495 47.8227 83.0206 47.9938 83.0206 48.2041C83.0206 48.4145 82.8495 48.5855 82.6392 48.5855Z" fill="#114A82"/>
<path d="M81.5438 54.4541C81.345 54.4541 81.1855 54.2923 81.1855 54.0959C81.1855 53.8971 81.3473 53.7376 81.5438 53.7376C81.7426 53.7376 81.9021 53.8994 81.9021 54.0959C81.9021 54.2923 81.7426 54.4541 81.5438 54.4541Z" fill="#114A82"/>
<path d="M79.378 60.02C79.1908 60.02 79.0405 59.8697 79.0405 59.6825C79.0405 59.4953 79.1908 59.345 79.378 59.345C79.5652 59.345 79.7155 59.4953 79.7155 59.6825C79.7155 59.8674 79.5652 60.02 79.378 60.02Z" fill="#114A82"/>
<path d="M76.2204 65.0889C76.047 65.0889 75.906 64.9479 75.906 64.7745C75.906 64.6012 76.047 64.4602 76.2204 64.4602C76.3937 64.4602 76.5347 64.6012 76.5347 64.7745C76.5347 64.9479 76.3937 65.0889 76.2204 65.0889Z" fill="#114A82"/>
<path d="M72.1825 69.4944C72.0207 69.4944 71.8889 69.3626 71.8889 69.2008C71.8889 69.039 72.0207 68.9073 72.1825 68.9073C72.3443 68.9073 72.476 69.039 72.476 69.2008C72.4737 69.3626 72.3443 69.4944 72.1825 69.4944Z" fill="#114A82"/>
<path d="M67.4025 73.0863C67.2523 73.0863 67.1321 72.9638 67.1321 72.8158C67.1321 72.6679 67.2546 72.5454 67.4025 72.5454C67.5528 72.5454 67.6729 72.6679 67.6729 72.8158C67.6729 72.9638 67.5528 73.0863 67.4025 73.0863Z" fill="#114A82"/>
<path d="M62.0399 75.7398C61.9012 75.7398 61.7903 75.6288 61.7903 75.4901C61.7903 75.3514 61.9012 75.2405 62.0399 75.2405C62.1786 75.2405 62.2895 75.3514 62.2895 75.4901C62.2895 75.6288 62.1786 75.7398 62.0399 75.7398Z" fill="#114A82"/>
<path d="M56.2755 77.3554C56.4018 77.3554 56.5043 77.253 56.5043 77.1266C56.5043 77.0002 56.4018 76.8978 56.2755 76.8978C56.1491 76.8978 56.0466 77.0002 56.0466 77.1266C56.0466 77.253 56.1491 77.3554 56.2755 77.3554Z" fill="#114A82"/>
<path d="M50.3075 77.8801C50.4211 77.8801 50.5132 77.788 50.5132 77.6744C50.5132 77.5608 50.4211 77.4687 50.3075 77.4687C50.1939 77.4687 50.1018 77.5608 50.1018 77.6744C50.1018 77.788 50.1939 77.8801 50.3075 77.8801Z" fill="#114A82"/>
<path d="M50.3076 16.4386C50.6267 16.4386 50.8854 16.1799 50.8854 15.8608C50.8854 15.5416 50.6267 15.2829 50.3076 15.2829C49.9884 15.2829 49.7297 15.5416 49.7297 15.8608C49.7297 16.1799 49.9884 16.4386 50.3076 16.4386Z" fill="#114A82"/>
<path d="M56.0352 16.9448C55.7439 16.9448 55.5105 16.7091 55.5105 16.4201C55.5105 16.1289 55.7463 15.8954 56.0352 15.8954C56.3241 15.8954 56.5599 16.1312 56.5599 16.4201C56.5622 16.7091 56.3264 16.9448 56.0352 16.9448Z" fill="#114A82"/>
<path d="M61.5432 18.5605C61.282 18.5605 61.0693 18.3478 61.0693 18.0866C61.0693 17.8255 61.282 17.6128 61.5432 17.6128C61.8044 17.6128 62.017 17.8255 62.017 18.0866C62.017 18.3478 61.8044 18.5605 61.5432 18.5605Z" fill="#114A82"/>
<path d="M66.6143 21.2232C66.8466 21.2232 67.035 21.0349 67.035 20.8025C67.035 20.5702 66.8466 20.3819 66.6143 20.3819C66.3819 20.3819 66.1936 20.5702 66.1936 20.8025C66.1936 21.0349 66.3819 21.2232 66.6143 21.2232Z" fill="#114A82"/>
<path d="M71.0615 24.8244C70.8581 24.8244 70.6917 24.6579 70.6917 24.4545C70.6917 24.2511 70.8581 24.0847 71.0615 24.0847C71.2649 24.0847 71.4313 24.2511 71.4313 24.4545C71.4313 24.6579 71.2649 24.8244 71.0615 24.8244Z" fill="#114A82"/>
<path d="M74.7134 29.2183C74.5377 29.2183 74.3967 29.0773 74.3967 28.9017C74.3967 28.726 74.5377 28.585 74.7134 28.585C74.8891 28.585 75.0301 28.726 75.0301 28.9017C75.0301 29.0773 74.8891 29.2183 74.7134 29.2183Z" fill="#114A82"/>
<path d="M77.4294 34.2387C77.2838 34.2387 77.1636 34.1208 77.1636 33.9729C77.1636 33.8272 77.2815 33.707 77.4294 33.707C77.575 33.707 77.6952 33.8249 77.6952 33.9729C77.6952 34.1208 77.575 34.2387 77.4294 34.2387Z" fill="#114A82"/>
<path d="M79.0981 39.6936C78.9803 39.6936 78.8855 39.5988 78.8855 39.4809C78.8855 39.363 78.9803 39.2683 79.0981 39.2683C79.216 39.2683 79.3108 39.363 79.3108 39.4809C79.3108 39.5988 79.216 39.6936 79.0981 39.6936Z" fill="#114A82"/>
<path d="M79.6575 45.368C79.7456 45.368 79.817 45.2966 79.817 45.2085C79.817 45.1205 79.7456 45.0491 79.6575 45.0491C79.5695 45.0491 79.498 45.1205 79.498 45.2085C79.498 45.2966 79.5695 45.368 79.6575 45.368Z" fill="#114A82"/>
<path d="M23.9276 59.3474C10.7341 59.3474 0 48.6132 0 35.4175C0 22.2217 10.7341 11.4899 23.9276 11.4899C37.121 11.4899 47.8574 22.2241 47.8574 35.4175C47.8574 48.6109 37.1233 59.3474 23.9276 59.3474ZM23.9276 11.9522C10.9884 11.9522 0.462279 22.4783 0.462279 35.4175C0.462279 48.3567 10.9884 58.8851 23.9276 58.8851C36.8667 58.8851 47.3951 48.359 47.3951 35.4175C47.3951 22.4783 36.8667 11.9522 23.9276 11.9522Z" fill="#0B315E"/>
<path d="M23.9277 55.4342C12.8908 55.4342 3.91333 46.4544 3.91333 35.4198C3.91333 24.3829 12.8931 15.4054 23.9277 15.4054C34.9646 15.4054 43.9421 24.3852 43.9421 35.4198C43.9444 46.4544 34.9646 55.4342 23.9277 55.4342ZM23.9277 16.9864C13.7645 16.9864 5.49663 25.2543 5.49663 35.4175C5.49663 45.5807 13.7645 53.8486 23.9277 53.8486C34.0909 53.8486 42.3588 45.5807 42.3588 35.4175C42.3588 25.2543 34.0909 16.9864 23.9277 16.9864Z" fill="#FF9D00"/>
<path d="M23.9276 51.5187C15.0495 51.5187 7.82642 44.2956 7.82642 35.4175C7.82642 26.5394 15.0495 19.3163 23.9276 19.3163C32.8057 19.3163 40.0288 26.5394 40.0288 35.4175C40.0288 44.2956 32.8057 51.5187 23.9276 51.5187ZM23.9276 19.7786C15.3038 19.7786 8.28869 26.7937 8.28869 35.4175C8.28869 44.0413 15.3038 51.0564 23.9276 51.0564C32.5514 51.0564 39.5665 44.0413 39.5665 35.4175C39.5665 26.7937 32.5514 19.7786 23.9276 19.7786Z" fill="#0B315E"/>
<path d="M23.9275 47.6055C17.2083 47.6055 11.7395 42.139 11.7395 35.4175C11.7395 28.696 17.206 23.2295 23.9275 23.2295C30.649 23.2295 36.1155 28.696 36.1155 35.4175C36.1155 42.139 30.649 47.6055 23.9275 47.6055ZM23.9275 23.6941C17.4625 23.6941 12.2018 28.9548 12.2018 35.4198C12.2018 41.8848 17.4625 47.1455 23.9275 47.1455C30.3925 47.1455 35.6532 41.8848 35.6532 35.4198C35.6532 28.9548 30.3948 23.6941 23.9275 23.6941Z" fill="#0B315E"/>
<path d="M23.9275 43.6923C19.3648 43.6923 15.655 39.9802 15.655 35.4175C15.655 30.8548 19.3671 27.145 23.9275 27.145C28.4902 27.145 32.2023 30.8571 32.2023 35.4175C32.2023 39.9802 28.4902 43.6923 23.9275 43.6923ZM23.9275 27.6073C19.6214 27.6073 16.1173 31.1114 16.1173 35.4175C16.1173 39.7236 19.6214 43.23 23.9275 43.23C28.2336 43.23 31.74 39.7259 31.74 35.4175C31.74 31.1091 28.236 27.6073 23.9275 27.6073Z" fill="#0B315E"/>
<path d="M23.9274 39.7791C21.5236 39.7791 19.5681 37.8237 19.5681 35.4198C19.5681 33.016 21.5236 31.0605 23.9274 31.0605C26.3313 31.0605 28.2867 33.016 28.2867 35.4198C28.289 37.8213 26.3313 39.7791 23.9274 39.7791ZM23.9274 31.5205C21.7778 31.5205 20.0304 33.2679 20.0304 35.4175C20.0304 37.5671 21.7778 39.3145 23.9274 39.3145C26.077 39.3145 27.8244 37.5671 27.8244 35.4175C27.8267 33.2702 26.077 31.5205 23.9274 31.5205Z" fill="#0B315E"/>
<path d="M56.0792 80.0112C72.336 80.0112 85.5148 66.8325 85.5148 50.5756C85.5148 34.3188 72.336 21.14 56.0792 21.14C39.8223 21.14 26.6436 34.3188 26.6436 50.5756C26.6436 66.8325 39.8223 80.0112 56.0792 80.0112Z" fill="url(#paint1_radial_51_103)"/>
<path d="M49.6372 72.7142C64.8281 72.7142 77.1428 60.3995 77.1428 45.2086C77.1428 30.0176 64.8281 17.703 49.6372 17.703C34.4463 17.703 22.1316 30.0176 22.1316 45.2086C22.1316 60.3995 34.4463 72.7142 49.6372 72.7142Z" fill="#0B315E"/>
<path d="M46.4683 58.3026L48.084 56.6869L47.6078 56.2108L45.5183 58.3026L47.6078 60.3944L48.084 59.9183L46.4683 58.3026Z" fill="white"/>
<path d="M49.288 58.3026L50.9037 56.6869L50.4275 56.2108L48.3357 58.3026L50.4275 60.3944L50.9037 59.9183L49.288 58.3026Z" fill="white"/>
<path d="M52.1427 58.3026L53.7584 56.6869L53.2822 56.2108L51.1904 58.3026L53.2822 60.3944L53.7584 59.9183L52.1427 58.3026Z" fill="white"/>
<path d="M52.8061 34.7749L51.1904 36.3906L51.6666 36.8644L53.7584 34.7749L51.6666 32.6831L51.1904 33.1593L52.8061 34.7749Z" fill="white"/>
<path d="M49.9863 34.7749L48.3706 36.3906L48.8468 36.8644L50.9386 34.7749L48.8468 32.6831L48.3706 33.1593L49.9863 34.7749Z" fill="white"/>
<path d="M47.134 34.7749L45.5183 36.3906L45.9922 36.8644L48.084 34.7749L45.9922 32.6831L45.5183 33.1593L47.134 34.7749Z" fill="white"/>
<path d="M95.0957 67.4946C100.588 62.002 100.588 53.0967 95.0957 47.6041C89.6031 42.1115 80.6979 42.1115 75.2052 47.6042C69.7126 53.0968 69.7126 62.002 75.2052 67.4946C80.6979 72.9872 89.6031 72.9872 95.0957 67.4946Z" fill="#FF9D00"/>
<path d="M87.2991 62.6607C90.1199 61.4721 91.4431 58.2217 90.2544 55.4009C89.0658 52.58 85.8154 51.2569 82.9946 52.4455C80.1737 53.6342 78.8506 56.8845 80.0392 59.7054C81.2278 62.5262 84.4782 63.8494 87.2991 62.6607Z" fill="#0B315E"/>
<defs>
<radialGradient id="paint0_radial_51_103" cx="0" cy="0" r="1" gradientUnits="userSpaceOnUse" gradientTransform="translate(60.2209 51.0364) scale(46.2394)">
<stop/>
<stop offset="1" stop-color="white"/>
</radialGradient>
<radialGradient id="paint1_radial_51_103" cx="0" cy="0" r="1" gradientUnits="userSpaceOnUse" gradientTransform="translate(56.0797 50.5762) scale(29.4362)">
<stop/>
<stop offset="1" stop-color="white"/>
</radialGradient>
</defs>
</svg>
