<svg width="536" height="536" viewBox="0 0 536 536" fill="none" xmlns="http://www.w3.org/2000/svg">
<path d="M337.725 159.192H280.819C265.451 159.192 252.992 171.495 252.992 186.672V380.482C252.999 383.171 253.596 385.825 254.743 388.256C255.89 390.688 257.557 392.838 259.627 394.553C261.697 396.268 264.119 397.507 266.721 398.182C269.324 398.857 272.043 398.951 274.686 398.458C275.365 398.339 276.03 398.149 276.669 397.889C287.617 393.158 296.382 386.853 309.275 386.853C322.167 386.853 330.933 393.158 341.881 397.889C342.519 398.149 343.183 398.339 343.861 398.458C346.504 398.951 349.222 398.856 351.824 398.181C354.426 397.506 356.848 396.267 358.918 394.552C360.988 392.837 362.655 390.687 363.801 388.256C364.948 385.824 365.545 383.17 365.552 380.482V186.672C365.552 171.495 353.093 159.192 337.725 159.192Z" fill="white"/>
<path d="M337.724 159.192H322.716C338.085 159.192 350.544 171.495 350.544 186.672V380.482C350.534 383.96 349.537 387.363 347.669 390.295C345.801 393.228 343.139 395.57 339.992 397.05C340.615 397.334 341.243 397.613 341.878 397.889C342.516 398.149 343.18 398.339 343.858 398.458C346.501 398.951 349.22 398.857 351.822 398.182C354.425 397.507 356.847 396.268 358.917 394.553C360.987 392.838 362.654 390.688 363.801 388.256C364.948 385.825 365.545 383.171 365.552 380.482V186.672C365.552 171.495 353.093 159.192 337.724 159.192Z" fill="#EAE8EA"/>
<path d="M294.264 386.853C282.12 386.853 273.638 392.446 263.544 397.05C267.012 398.697 270.917 399.191 274.686 398.458C275.365 398.339 276.03 398.149 276.669 397.889C285.359 394.134 292.676 389.39 301.771 387.592C299.299 387.1 296.784 386.853 294.264 386.853Z" fill="#D9CEDB"/>
<path d="M337.725 159.192H280.819C265.451 159.192 252.992 171.495 252.992 186.672V380.482C252.999 383.171 253.596 385.825 254.743 388.256C255.89 390.688 257.557 392.838 259.627 394.553C261.697 396.268 264.119 397.507 266.721 398.182C269.324 398.857 272.043 398.951 274.686 398.458C275.365 398.339 276.03 398.149 276.669 397.889C287.617 393.158 296.382 386.853 309.275 386.853C322.167 386.853 330.933 393.158 341.881 397.889C342.519 398.149 343.183 398.339 343.861 398.458C346.504 398.951 349.222 398.856 351.824 398.181C354.426 397.506 356.848 396.267 358.918 394.552C360.988 392.837 362.655 390.687 363.801 388.256C364.948 385.824 365.545 383.17 365.552 380.482V186.672C365.552 171.495 353.093 159.192 337.725 159.192Z" stroke="#363A5A" stroke-width="6" stroke-linecap="round" stroke-linejoin="round"/>
<path d="M331.904 151.688H286.88V159.192H331.904V151.688Z" fill="#EAE8EA"/>
<path d="M331.904 151.688H286.88V159.192H331.904V151.688Z" stroke="#363A5A" stroke-width="6" stroke-linecap="round" stroke-linejoin="round"/>
<path d="M332.507 151.867C317.109 152.718 301.676 152.718 286.278 151.867C285.458 151.819 284.687 151.459 284.123 150.861C283.56 150.263 283.247 149.472 283.248 148.651C283.248 142.445 283.248 136.24 283.248 130.035C283.248 124.117 287.979 118.237 293.757 116.956C304.047 114.654 314.719 114.662 325.006 116.977C330.795 118.255 335.538 124.13 335.538 130.056C335.538 136.253 335.538 142.45 335.538 148.646C335.54 149.469 335.227 150.261 334.664 150.86C334.1 151.459 333.328 151.819 332.507 151.867Z" fill="white"/>
<path d="M335.536 130.063C335.536 124.134 330.794 118.26 325.005 116.984C318.275 115.478 311.363 114.949 304.482 115.414C308.141 115.666 311.776 116.191 315.357 116.984C321.146 118.262 325.888 124.137 325.888 130.063C325.888 136.26 325.888 142.457 325.888 148.653C325.889 149.475 325.576 150.266 325.013 150.864C324.45 151.462 323.679 151.821 322.859 151.869C316.766 152.206 310.669 152.408 304.569 152.474C313.884 152.582 323.196 152.38 332.507 151.869C333.327 151.821 334.098 151.462 334.661 150.864C335.224 150.266 335.537 149.475 335.536 148.653C335.536 142.458 335.536 136.261 335.536 130.063Z" fill="#EAE8EA"/>
<path d="M332.507 151.867C317.109 152.718 301.676 152.718 286.278 151.867C285.458 151.819 284.687 151.459 284.123 150.861C283.56 150.263 283.247 149.472 283.248 148.651C283.248 142.445 283.248 136.24 283.248 130.035C283.248 124.117 287.979 118.237 293.757 116.956C304.047 114.654 314.719 114.662 325.006 116.977C330.795 118.255 335.538 124.13 335.538 130.056C335.538 136.253 335.538 142.45 335.538 148.646C335.54 149.469 335.227 150.261 334.664 150.86C334.1 151.459 333.328 151.819 332.507 151.867V151.867Z" stroke="#363A5A" stroke-width="6" stroke-linecap="round" stroke-linejoin="round"/>
<path d="M252.992 210.648V380.482C252.999 383.171 253.596 385.825 254.743 388.256C255.89 390.688 257.557 392.838 259.627 394.553C261.697 396.268 264.119 397.507 266.721 398.182C269.324 398.857 272.043 398.951 274.686 398.458C275.365 398.339 276.03 398.149 276.669 397.889C287.617 393.158 296.382 386.853 309.275 386.853C322.167 386.853 330.933 393.158 341.881 397.889C342.519 398.149 343.183 398.339 343.861 398.458C346.504 398.951 349.222 398.856 351.824 398.181C354.426 397.506 356.848 396.267 358.918 394.552C360.988 392.836 362.655 390.687 363.801 388.256C364.948 385.824 365.545 383.17 365.552 380.482V210.648H252.992Z" fill="#73E1FF"/>
<path d="M350.008 210.648V372.978C350.001 375.667 349.404 378.321 348.257 380.752C347.11 383.184 345.443 385.334 343.373 387.049C341.303 388.764 338.881 390.003 336.278 390.678C333.676 391.353 330.957 391.447 328.314 390.954C327.636 390.835 326.972 390.645 326.334 390.385C315.386 385.652 306.621 379.349 293.728 379.349C280.835 379.349 272.07 385.652 261.122 390.385C260.484 390.644 259.82 390.835 259.142 390.954C258.28 391.118 257.408 391.219 256.532 391.258C258.563 394.057 261.348 396.22 264.563 397.495C267.777 398.77 271.288 399.104 274.686 398.458C275.365 398.339 276.03 398.149 276.669 397.889C287.617 393.158 296.382 386.853 309.275 386.853C322.167 386.853 330.933 393.158 341.881 397.889C342.519 398.149 343.183 398.339 343.861 398.458C346.504 398.951 349.222 398.856 351.824 398.181C354.426 397.506 356.848 396.267 358.918 394.552C360.988 392.837 362.655 390.687 363.801 388.256C364.948 385.824 365.545 383.17 365.552 380.482V210.648H350.008Z" fill="#48D8F9"/>
<path d="M252.992 210.648V380.482C252.999 383.171 253.596 385.825 254.743 388.256C255.89 390.688 257.557 392.838 259.627 394.553C261.697 396.268 264.119 397.507 266.721 398.182C269.324 398.857 272.043 398.951 274.686 398.458C275.365 398.339 276.03 398.149 276.669 397.889C287.617 393.158 296.382 386.853 309.275 386.853C322.167 386.853 330.933 393.158 341.881 397.889C342.519 398.149 343.183 398.339 343.861 398.458C346.504 398.951 349.222 398.856 351.824 398.181C354.426 397.506 356.848 396.267 358.918 394.552C360.988 392.836 362.655 390.687 363.801 388.256C364.948 385.824 365.545 383.17 365.552 380.482V210.648H252.992Z" stroke="#363A5A" stroke-width="6" stroke-linecap="round" stroke-linejoin="round"/>
<path d="M294.264 138.288V151.688" stroke="#363A5A" stroke-width="6" stroke-linecap="round" stroke-linejoin="round"/>
<path d="M304.448 138.288V151.688" stroke="#363A5A" stroke-width="6" stroke-linecap="round" stroke-linejoin="round"/>
<path d="M314.632 138.288V151.688" stroke="#363A5A" stroke-width="6" stroke-linecap="round" stroke-linejoin="round"/>
<path d="M324.816 138.288V151.688" stroke="#363A5A" stroke-width="6" stroke-linecap="round" stroke-linejoin="round"/>
<path d="M283.008 264.248C286.56 264.248 289.44 261.368 289.44 257.816C289.44 254.264 286.56 251.384 283.008 251.384C279.456 251.384 276.576 254.264 276.576 257.816C276.576 261.368 279.456 264.248 283.008 264.248Z" fill="#ABEFFF"/>
<path d="M321.6 289.976C323.968 289.976 325.888 288.056 325.888 285.688C325.888 283.32 323.968 281.4 321.6 281.4C319.232 281.4 317.312 283.32 317.312 285.688C317.312 288.056 319.232 289.976 321.6 289.976Z" fill="#ABEFFF"/>
<path d="M295.872 322.136C297.648 322.136 299.088 320.696 299.088 318.92C299.088 317.144 297.648 315.704 295.872 315.704C294.096 315.704 292.656 317.144 292.656 318.92C292.656 320.696 294.096 322.136 295.872 322.136Z" fill="#ABEFFF"/>
<path d="M309.808 249.24C311.584 249.24 313.024 247.8 313.024 246.024C313.024 244.248 311.584 242.808 309.808 242.808C308.032 242.808 306.592 244.248 306.592 246.024C306.592 247.8 308.032 249.24 309.808 249.24Z" fill="#ABEFFF"/>
<path d="M349.472 225.12V303.376" stroke="#363A5A" stroke-width="6" stroke-linecap="round" stroke-linejoin="round"/>
<path d="M95.944 240.029C91.4128 240.271 86.9251 241.039 82.5713 242.318C82.5322 243.854 82.5343 245.398 82.6163 246.959C83.0798 255.766 85.5313 264.353 89.7872 272.078C94.043 279.802 99.9926 286.463 107.19 291.56C114.387 296.656 122.645 300.058 131.344 301.508C140.043 302.958 148.957 302.42 157.419 299.933C157.458 298.398 157.456 296.853 157.374 295.293C156.556 279.818 149.625 265.302 138.104 254.938C126.584 244.575 111.418 239.212 95.944 240.029Z" fill="#76C526"/>
<path d="M95.944 240.029C91.4128 240.271 86.9251 241.039 82.5713 242.318C82.5322 243.854 82.5343 245.398 82.6163 246.959C83.0798 255.766 85.5313 264.353 89.7872 272.078C94.043 279.802 99.9926 286.463 107.19 291.56C114.387 296.656 122.645 300.058 131.344 301.508C140.043 302.958 148.957 302.42 157.419 299.933C157.458 298.398 157.456 296.853 157.374 295.293C156.556 279.818 149.625 265.302 138.104 254.938C126.584 244.575 111.418 239.212 95.944 240.029V240.029Z" stroke="#363A5A" stroke-width="6" stroke-linecap="round" stroke-linejoin="round"/>
<path d="M200.125 228.187C199.249 224.319 197.926 220.567 196.182 217.004C194.854 217.197 193.523 217.427 192.191 217.727C184.673 219.425 177.636 222.803 171.61 227.608C165.583 232.413 160.722 238.52 157.392 245.471C154.063 252.423 152.35 260.038 152.383 267.746C152.416 275.453 154.194 283.053 157.584 289.976C158.913 289.784 160.244 289.554 161.575 289.253C168.116 287.775 174.302 285.022 179.779 281.154C185.256 277.285 189.918 272.375 193.498 266.704C197.077 261.034 199.505 254.714 200.642 248.105C201.779 241.496 201.604 234.728 200.125 228.187Z" fill="#76C526"/>
<path d="M200.125 228.186C199.663 226.148 199.076 224.14 198.366 222.174C198.893 234.137 195.2 245.906 187.932 255.424C180.664 264.942 170.283 271.603 158.602 274.245C157.271 274.546 155.94 274.776 154.612 274.968C153.791 273.286 153.062 271.561 152.429 269.8C152.748 276.807 154.502 283.674 157.584 289.976C158.913 289.784 160.243 289.554 161.575 289.253C168.116 287.775 174.302 285.022 179.779 281.153C185.256 277.284 189.918 272.374 193.498 266.704C197.077 261.033 199.505 254.713 200.642 248.104C201.779 241.495 201.604 234.727 200.125 228.186Z" fill="#5FA412"/>
<path d="M200.125 228.187C199.249 224.319 197.926 220.567 196.182 217.004C194.854 217.197 193.523 217.427 192.191 217.727C184.673 219.425 177.636 222.803 171.61 227.608C165.583 232.413 160.722 238.52 157.392 245.471C154.063 252.423 152.35 260.038 152.383 267.746C152.416 275.453 154.194 283.053 157.584 289.976C158.913 289.784 160.244 289.554 161.575 289.253C168.116 287.775 174.302 285.022 179.779 281.154C185.256 277.285 189.918 272.375 193.498 266.704C197.077 261.034 199.505 254.714 200.642 248.105C201.779 241.496 201.604 234.728 200.125 228.187V228.187Z" stroke="#363A5A" stroke-width="6" stroke-linecap="round" stroke-linejoin="round"/>
<path d="M181.025 244.952C181.025 244.952 168.987 260.496 157.584 289.976" stroke="#363A5A" stroke-width="6" stroke-linecap="round" stroke-linejoin="round"/>
<path d="M107.593 262.64C107.593 262.64 141.848 295.419 157.416 299.933" stroke="#363A5A" stroke-width="6" stroke-linecap="round" stroke-linejoin="round"/>
<path d="M216.148 340.092C216.14 348.081 214.545 355.99 211.454 363.357C208.364 370.725 203.84 377.405 198.146 383.009C192.451 388.613 185.7 393.03 178.284 396.002C170.869 398.975 162.936 400.444 154.947 400.325C146.959 400.206 139.074 398.5 131.75 395.307C124.426 392.114 117.81 387.498 112.286 381.726C106.761 375.954 102.439 369.142 99.5704 361.685C96.7014 354.229 95.3428 346.276 95.5736 338.29C96.4553 307.07 120.188 281.42 151.947 284.144C154.511 284.37 157.088 284.428 159.659 284.316C191.578 282.842 216.148 308.053 216.148 340.092Z" fill="#FF7D00"/>
<path d="M201.072 300.878C203.673 308.018 204.993 315.562 204.972 323.161C204.948 333.951 202.268 344.569 197.168 354.078C192.068 363.587 184.705 371.694 175.729 377.682C166.754 383.671 156.441 387.357 145.703 388.415C134.965 389.473 124.132 387.871 114.159 383.75C122.712 391.89 133.463 397.344 145.083 399.436C156.704 401.528 168.682 400.166 179.536 395.52C190.391 390.874 199.644 383.146 206.152 373.294C212.659 363.443 216.135 351.899 216.148 340.092C216.148 324.716 210.487 310.914 201.072 300.878Z" fill="#FF6C22"/>
<path d="M188.672 291.584C167.232 297.48 153.028 318.983 149.544 342.504C147.4 356.976 156.512 391.816 182.541 394.174C192.631 389.193 201.126 381.488 207.065 371.931C213.004 362.373 216.15 351.344 216.148 340.092C216.148 317.594 206.94 300.473 188.672 291.584Z" fill="#FF6C22"/>
<path d="M216.148 340.092C216.14 348.082 214.545 355.99 211.454 363.357C208.364 370.725 203.84 377.405 198.146 383.009C192.452 388.613 185.7 393.03 178.284 396.002C170.869 398.975 162.936 400.444 154.947 400.325C146.959 400.206 139.074 398.5 131.75 395.307C124.426 392.114 117.81 387.498 112.286 381.726C106.761 375.954 102.439 369.142 99.5704 361.685C96.7014 354.229 95.3428 346.276 95.5736 338.29C96.4553 307.07 120.188 281.42 151.947 284.144C154.511 284.37 157.088 284.428 159.659 284.316C191.578 282.842 216.148 308.053 216.148 340.092Z" stroke="#363A5A" stroke-width="6" stroke-linecap="round" stroke-linejoin="round"/>
<path d="M114.168 319.456C113.709 319.456 113.257 319.337 112.857 319.112C112.456 318.887 112.121 318.563 111.882 318.171C111.643 317.779 111.508 317.332 111.492 316.873C111.475 316.414 111.577 315.958 111.787 315.55C121.975 295.739 141.972 293.302 142.818 293.208C143.525 293.128 144.234 293.333 144.789 293.776C145.345 294.22 145.701 294.865 145.781 295.572C145.86 296.278 145.656 296.987 145.212 297.543C144.769 298.098 144.123 298.455 143.416 298.534C142.685 298.62 125.393 300.812 116.553 318.001C116.328 318.44 115.986 318.807 115.565 319.064C115.144 319.321 114.661 319.456 114.168 319.456Z" fill="#FF9636"/>
<path d="M115.776 338.216C116.96 338.216 117.92 337.256 117.92 336.072C117.92 334.888 116.96 333.928 115.776 333.928C114.592 333.928 113.632 334.888 113.632 336.072C113.632 337.256 114.592 338.216 115.776 338.216Z" fill="#FF9636"/>
<path d="M131.856 377.88C133.04 377.88 134 376.92 134 375.736C134 374.552 133.04 373.592 131.856 373.592C130.672 373.592 129.712 374.552 129.712 375.736C129.712 376.92 130.672 377.88 131.856 377.88Z" fill="#FF9636"/>
<path d="M116.848 363.408C118.624 363.408 120.064 361.968 120.064 360.192C120.064 358.416 118.624 356.976 116.848 356.976C115.072 356.976 113.632 358.416 113.632 360.192C113.632 361.968 115.072 363.408 116.848 363.408Z" fill="#FF9636"/>
<path d="M140.7 348.936C141.736 348.936 142.576 348.096 142.576 347.06C142.576 346.024 141.736 345.184 140.7 345.184C139.664 345.184 138.824 346.024 138.824 347.06C138.824 348.096 139.664 348.936 140.7 348.936Z" fill="#FF9636"/>
<path d="M216.527 400.392C248.428 400.392 274.289 374.531 274.289 342.631C274.289 310.73 248.428 284.869 216.527 284.869C184.627 284.869 158.766 310.73 158.766 342.631C158.766 374.531 184.627 400.392 216.527 400.392Z" fill="#FF7D00"/>
<path d="M247.471 293.85C256.967 304.16 262.39 317.57 262.73 331.583C263.069 345.595 258.303 359.253 249.318 370.011C240.333 380.769 227.743 387.893 213.894 390.055C200.045 392.217 185.883 389.27 174.046 381.763C179.616 387.808 186.412 392.595 193.98 395.803C201.548 399.011 209.714 400.567 217.931 400.367C226.148 400.167 234.229 398.216 241.631 394.643C249.034 391.07 255.589 385.958 260.858 379.649C266.127 373.341 269.989 365.98 272.186 358.059C274.383 350.138 274.864 341.839 273.596 333.718C272.329 325.596 269.343 317.838 264.838 310.963C260.333 304.088 254.412 298.254 247.471 293.85Z" fill="#FF5B00"/>
<path d="M216.527 394.213C245.016 394.213 268.11 371.119 268.11 342.63C268.11 314.142 245.016 291.048 216.527 291.048C188.039 291.048 164.945 314.142 164.945 342.63C164.945 371.119 188.039 394.213 216.527 394.213Z" fill="white"/>
<path d="M268.078 340.896C268.073 340.747 268.067 340.599 268.061 340.451C268.039 339.926 268.011 339.404 267.974 338.884C267.969 338.83 267.967 338.777 267.964 338.723C267.921 338.152 267.866 337.584 267.803 337.018C267.788 336.885 267.773 336.753 267.757 336.62C267.698 336.115 267.633 335.613 267.56 335.113C267.551 335.044 267.542 334.975 267.532 334.906C267.446 334.338 267.352 333.773 267.247 333.211C267.228 333.107 267.207 333.003 267.187 332.899C267.09 332.394 266.987 331.891 266.875 331.39C266.86 331.323 266.847 331.256 266.832 331.189C266.703 330.62 266.565 330.055 266.417 329.493C266.401 329.431 266.383 329.369 266.366 329.307C266.226 328.783 266.079 328.263 265.924 327.746C265.907 327.693 265.891 327.635 265.874 327.58C265.7 327.008 265.517 326.441 265.324 325.878L265.316 325.857C265.125 325.302 264.925 324.752 264.715 324.206L264.671 324.089C264.239 322.97 263.77 321.869 263.263 320.789C263.253 320.766 263.243 320.744 263.232 320.722C262.719 319.63 262.17 318.559 261.583 317.51L261.567 317.482C260.976 316.425 260.348 315.391 259.686 314.38C262.871 323.773 263.585 333.828 261.76 343.577C259.935 353.326 255.633 362.441 249.266 370.046C242.899 377.652 234.682 383.49 225.406 387.001C216.13 390.512 206.106 391.577 196.299 390.093C198.643 391.094 201.057 391.918 203.523 392.559L203.536 392.563C203.94 392.667 204.346 392.767 204.754 392.862L204.79 392.871C205.183 392.963 205.578 393.05 205.976 393.131L206.056 393.149C206.437 393.228 206.82 393.301 207.205 393.371L207.332 393.396C207.707 393.463 208.085 393.525 208.464 393.585L208.618 393.61C208.972 393.664 209.329 393.714 209.686 393.761C209.763 393.771 209.839 393.783 209.916 393.793C210.26 393.837 210.605 393.875 210.95 393.912C211.041 393.922 211.131 393.934 211.218 393.943C211.547 393.977 211.877 394.005 212.208 394.032C212.315 394.041 212.425 394.053 212.534 394.061C212.846 394.085 213.16 394.103 213.473 394.121C213.601 394.128 213.729 394.139 213.857 394.146C214.179 394.162 214.506 394.172 214.83 394.183C214.949 394.187 215.067 394.193 215.187 394.196C215.631 394.208 216.078 394.213 216.527 394.214C226.456 394.222 236.177 391.361 244.519 385.976C252.861 380.591 259.47 372.91 263.551 363.858C263.895 363.096 264.222 362.325 264.53 361.544C264.992 360.373 265.411 359.181 265.788 357.969C266.422 355.934 266.928 353.86 267.302 351.761C267.453 350.914 267.584 350.061 267.693 349.2C267.97 347.021 268.108 344.827 268.108 342.631C268.11 342.05 268.097 341.472 268.078 340.896Z" fill="#EAE8EA"/>
<path d="M216.527 400.392C248.428 400.392 274.289 374.531 274.289 342.631C274.289 310.73 248.428 284.869 216.527 284.869C184.627 284.869 158.766 310.73 158.766 342.631C158.766 374.531 184.627 400.392 216.527 400.392Z" stroke="#363A5A" stroke-width="6" stroke-linecap="round" stroke-linejoin="round"/>
<path d="M229.225 335.515C228.739 334.651 228.166 333.839 227.514 333.092C226.543 332.005 225.938 330.64 225.782 329.191C225.626 327.741 225.928 326.279 226.645 325.01L235.523 309.565C236.027 308.688 236.717 307.932 237.545 307.35C238.373 306.769 239.319 306.376 240.315 306.2C241.311 306.024 242.334 306.068 243.311 306.331C244.288 306.593 245.196 307.066 245.97 307.718C251.996 312.782 256.606 319.323 259.347 326.701C259.699 327.65 259.838 328.665 259.755 329.673C259.671 330.682 259.368 331.66 258.865 332.539C258.362 333.417 257.673 334.174 256.845 334.757C256.018 335.34 255.072 335.734 254.076 335.911L236.526 339.043C235.093 339.288 233.62 339.079 232.311 338.447C231.002 337.814 229.924 336.789 229.225 335.515Z" fill="#FFCE43"/>
<path d="M203.83 349.746C204.316 350.61 204.889 351.421 205.541 352.168C206.512 353.256 207.118 354.62 207.274 356.07C207.429 357.52 207.128 358.982 206.41 360.251L197.532 375.696C197.028 376.573 196.338 377.329 195.51 377.91C194.682 378.492 193.737 378.884 192.741 379.061C191.745 379.237 190.722 379.193 189.745 378.931C188.768 378.669 187.86 378.196 187.086 377.545C181.06 372.48 176.451 365.939 173.71 358.56C173.358 357.611 173.219 356.597 173.302 355.588C173.386 354.579 173.689 353.601 174.192 352.723C174.695 351.845 175.384 351.087 176.212 350.505C177.039 349.922 177.985 349.528 178.981 349.35L196.531 346.218C197.963 345.974 199.436 346.183 200.745 346.815C202.053 347.447 203.131 348.472 203.83 349.746Z" fill="#FFCE43"/>
<path d="M216.705 328.076C215.714 328.065 214.724 328.157 213.752 328.349C212.325 328.647 210.84 328.49 209.507 327.902C208.173 327.313 207.057 326.321 206.316 325.066L197.368 309.661C196.86 308.786 196.549 307.811 196.459 306.803C196.368 305.796 196.5 304.78 196.845 303.829C197.19 302.878 197.739 302.015 198.454 301.299C199.168 300.583 200.032 300.033 200.982 299.687C208.379 296.995 216.348 296.269 224.11 297.579C225.107 297.748 226.056 298.134 226.888 298.71C227.72 299.286 228.416 300.037 228.926 300.911C229.436 301.786 229.748 302.761 229.839 303.769C229.931 304.777 229.801 305.792 229.457 306.744L223.405 323.514C222.901 324.876 221.985 326.048 220.784 326.866C219.583 327.684 218.157 328.107 216.705 328.076Z" fill="#FFCE43"/>
<path d="M216.352 357.185C217.343 357.195 218.332 357.104 219.304 356.912C220.732 356.614 222.216 356.771 223.55 357.36C224.884 357.948 225.999 358.94 226.741 360.195L235.689 375.6C236.197 376.475 236.507 377.45 236.598 378.458C236.688 379.465 236.556 380.48 236.212 381.431C235.867 382.382 235.318 383.246 234.603 383.962C233.888 384.678 233.025 385.228 232.074 385.573C224.677 388.265 216.708 388.992 208.947 387.682C207.949 387.513 207.001 387.127 206.169 386.551C205.336 385.975 204.641 385.224 204.131 384.349C203.621 383.475 203.309 382.5 203.217 381.492C203.126 380.484 203.256 379.469 203.6 378.517L209.651 361.746C210.154 360.384 211.07 359.212 212.271 358.394C213.473 357.576 214.899 357.154 216.352 357.185Z" fill="#FFCE43"/>
<path d="M204.02 335.184C203.515 336.037 203.098 336.939 202.777 337.877C202.32 339.261 201.44 340.467 200.262 341.326C199.084 342.185 197.667 342.654 196.209 342.666L178.394 342.689C177.383 342.691 176.383 342.471 175.466 342.044C174.549 341.617 173.736 340.995 173.086 340.22C172.436 339.445 171.964 338.537 171.703 337.56C171.441 336.582 171.398 335.56 171.575 334.564C172.953 326.814 176.317 319.554 181.34 313.493C181.987 312.714 182.796 312.087 183.712 311.655C184.627 311.223 185.626 310.998 186.639 310.995C187.651 310.992 188.651 311.211 189.57 311.637C190.488 312.063 191.301 312.685 191.953 313.46L203.432 327.099C204.359 328.218 204.914 329.598 205.019 331.047C205.125 332.497 204.776 333.943 204.02 335.184Z" fill="#FFCE43"/>
<path d="M229.033 350.077C229.538 349.224 229.955 348.322 230.276 347.384C230.734 346 231.613 344.794 232.791 343.935C233.969 343.076 235.387 342.607 236.844 342.594L254.66 342.571C255.671 342.569 256.671 342.79 257.588 343.216C258.505 343.643 259.318 344.266 259.968 345.041C260.618 345.816 261.09 346.724 261.351 347.701C261.612 348.679 261.656 349.701 261.479 350.697C260.102 358.448 256.738 365.708 251.715 371.77C251.069 372.548 250.259 373.176 249.344 373.608C248.428 374.039 247.429 374.265 246.417 374.268C245.404 374.271 244.404 374.052 243.486 373.626C242.567 373.2 241.754 372.578 241.102 371.803L229.622 358.162C228.695 357.043 228.14 355.663 228.034 354.213C227.929 352.764 228.278 351.318 229.033 350.077Z" fill="#FFCE43"/>
<path d="M227.514 333.092C228.166 333.839 228.739 334.651 229.225 335.515C229.924 336.789 231.002 337.814 232.311 338.446C233.619 339.078 235.092 339.287 236.524 339.042L254.074 335.91C255.071 335.733 256.016 335.339 256.843 334.756C257.671 334.173 258.36 333.416 258.863 332.538C259.366 331.659 259.669 330.681 259.753 329.673C259.836 328.664 259.697 327.65 259.346 326.701C256.604 319.322 251.996 312.782 245.97 307.718C245.196 307.067 244.288 306.593 243.311 306.331C242.334 306.07 241.312 306.025 240.316 306.201C239.32 306.378 238.374 306.77 237.547 307.352C236.719 307.933 236.029 308.689 235.525 309.566L226.647 325.011C225.929 326.28 225.627 327.742 225.783 329.191C225.938 330.64 226.544 332.005 227.514 333.092Z" fill="#FFCE43"/>
<path d="M194.678 363.408C197.572 363.869 200.297 365.075 202.583 366.908L206.41 360.25C207.127 358.981 207.429 357.519 207.273 356.07C207.118 354.62 206.512 353.256 205.542 352.168C204.889 351.422 204.316 350.61 203.83 349.746C203.131 348.472 202.053 347.447 200.744 346.815C199.436 346.183 197.963 345.974 196.531 346.218L185.349 348.215C186.174 360.039 188.756 362.562 194.678 363.408Z" fill="#FFCE43"/>
<path d="M206.314 325.066C207.055 326.321 208.171 327.313 209.505 327.901C210.839 328.49 212.323 328.647 213.75 328.349C214.723 328.157 215.712 328.065 216.703 328.076C218.156 328.107 219.582 327.684 220.783 326.866C221.984 326.048 222.9 324.876 223.403 323.514L229.454 306.745C229.797 305.793 229.928 304.777 229.836 303.769C229.744 302.762 229.433 301.786 228.923 300.912C228.413 300.038 227.717 299.286 226.885 298.71C226.053 298.135 225.104 297.748 224.106 297.579C216.345 296.269 208.376 296.996 200.979 299.688C200.028 300.034 199.165 300.584 198.45 301.299C197.735 302.015 197.186 302.879 196.842 303.83C196.497 304.781 196.365 305.796 196.456 306.804C196.546 307.811 196.856 308.787 197.365 309.661L206.314 325.066Z" fill="#FFCE43"/>
<path d="M226.741 360.195C225.999 358.94 224.883 357.948 223.55 357.36C222.216 356.771 220.732 356.614 219.304 356.912C218.332 357.104 217.343 357.195 216.352 357.185C214.899 357.154 213.473 357.577 212.272 358.395C211.071 359.213 210.155 360.385 209.652 361.748L206.503 370.475C207.339 371.381 208.223 372.243 209.15 373.056C211.83 375.2 222.014 376.272 222.014 377.88C222.014 379.017 223.89 384.44 224.988 387.52C227.399 387.063 229.768 386.412 232.074 385.573C233.025 385.228 233.888 384.677 234.603 383.962C235.318 383.246 235.867 382.382 236.211 381.431C236.556 380.48 236.688 379.465 236.598 378.458C236.507 377.45 236.197 376.475 235.689 375.6L226.741 360.195Z" fill="#FFCE43"/>
<path d="M185.03 336.608C185.03 338.813 185.053 340.827 185.099 342.681L196.209 342.666C197.667 342.654 199.084 342.185 200.262 341.326C201.44 340.467 202.32 339.261 202.777 337.877C203.098 336.939 203.515 336.037 204.02 335.184C204.775 333.943 205.125 332.497 205.019 331.047C204.913 329.598 204.358 328.218 203.431 327.099L191.952 313.46C191.3 312.685 190.487 312.063 189.569 311.637C188.65 311.211 187.65 310.992 186.638 310.995C185.625 310.998 184.626 311.223 183.711 311.655C182.795 312.087 181.986 312.714 181.339 313.493C179.063 316.241 177.119 319.246 175.546 322.448C180.554 323.382 185.03 326.924 185.03 336.608Z" fill="#FFCE43"/>
<path d="M254.661 342.571L236.846 342.594C235.388 342.607 233.97 343.076 232.793 343.935C231.615 344.794 230.735 346 230.278 347.384C229.957 348.322 229.54 349.224 229.034 350.077C228.279 351.318 227.93 352.764 228.036 354.213C228.142 355.663 228.697 357.043 229.624 358.162L241.103 371.801C241.754 372.576 242.568 373.198 243.486 373.624C244.404 374.05 245.405 374.269 246.417 374.266C247.429 374.263 248.429 374.038 249.344 373.606C250.26 373.174 251.069 372.547 251.716 371.768C256.739 365.707 260.103 358.447 261.481 350.697C261.658 349.701 261.615 348.679 261.354 347.701C261.092 346.724 260.62 345.816 259.97 345.041C259.319 344.266 258.507 343.643 257.59 343.216C256.672 342.79 255.673 342.569 254.661 342.571Z" fill="#FFCE43"/>
<path d="M173.71 358.56C176.451 365.939 181.06 372.48 187.086 377.544C187.86 378.195 188.768 378.669 189.745 378.931C190.722 379.193 191.745 379.237 192.741 379.061C193.737 378.884 194.682 378.492 195.51 377.91C196.338 377.329 197.028 376.573 197.532 375.696L202.583 366.908C200.297 365.075 197.572 363.869 194.678 363.408C188.756 362.562 186.174 360.039 185.347 348.215L178.981 349.35C177.985 349.528 177.039 349.922 176.212 350.504C175.384 351.087 174.695 351.845 174.192 352.723C173.689 353.601 173.386 354.579 173.302 355.588C173.219 356.597 173.358 357.611 173.71 358.56Z" fill="#FFB345"/>
<path d="M209.15 373.056C208.222 372.243 207.338 371.381 206.502 370.475L203.6 378.515C203.256 379.466 203.126 380.482 203.217 381.49C203.309 382.498 203.621 383.473 204.131 384.347C204.641 385.221 205.336 385.973 206.169 386.549C207.001 387.125 207.949 387.511 208.947 387.68C214.261 388.578 219.693 388.524 224.988 387.519C223.887 384.44 211.83 375.2 209.15 373.056Z" fill="#FFB345"/>
<path d="M178.394 342.689L185.099 342.681C185.053 340.827 185.03 338.813 185.03 336.608C185.03 326.924 180.554 323.382 175.548 322.448C173.662 326.28 172.325 330.358 171.575 334.562C171.398 335.558 171.441 336.581 171.702 337.558C171.963 338.536 172.435 339.444 173.085 340.219C173.736 340.994 174.548 341.617 175.465 342.044C176.383 342.471 177.382 342.691 178.394 342.689Z" fill="#FFB345"/>
</svg>
