<svg width="149" height="70" viewBox="0 0 149 70" fill="none" xmlns="http://www.w3.org/2000/svg">
<path d="M15.696 40L9.936 29.992H6.804V40H2.7V14.98H11.34C13.26 14.98 14.88 15.316 16.2 15.988C17.544 16.66 18.54 17.56 19.188 18.688C19.86 19.816 20.196 21.076 20.196 22.468C20.196 24.1 19.716 25.588 18.756 26.932C17.82 28.252 16.368 29.152 14.4 29.632L20.592 40H15.696ZM6.804 26.716H11.34C12.876 26.716 14.028 26.332 14.796 25.564C15.588 24.796 15.984 23.764 15.984 22.468C15.984 21.172 15.6 20.164 14.832 19.444C14.064 18.7 12.9 18.328 11.34 18.328H6.804V26.716ZM43.6261 29.596C43.6261 30.34 43.5781 31.012 43.4821 31.612H28.3261C28.4461 33.196 29.0341 34.468 30.0901 35.428C31.1461 36.388 32.4421 36.868 33.9781 36.868C36.1861 36.868 37.7461 35.944 38.6581 34.096H43.0861C42.4861 35.92 41.3941 37.42 39.8101 38.596C38.2501 39.748 36.3061 40.324 33.9781 40.324C32.0821 40.324 30.3781 39.904 28.8661 39.064C27.3781 38.2 26.2021 37 25.3381 35.464C24.4981 33.904 24.0781 32.104 24.0781 30.064C24.0781 28.024 24.4861 26.236 25.3021 24.7C26.1421 23.14 27.3061 21.94 28.7941 21.1C30.3061 20.26 32.0341 19.84 33.9781 19.84C35.8501 19.84 37.5181 20.248 38.9821 21.064C40.4461 21.88 41.5861 23.032 42.4021 24.52C43.2181 25.984 43.6261 27.676 43.6261 29.596ZM39.3421 28.3C39.3181 26.788 38.7781 25.576 37.7221 24.664C36.6661 23.752 35.3581 23.296 33.7981 23.296C32.3821 23.296 31.1701 23.752 30.1621 24.664C29.1541 25.552 28.5541 26.764 28.3621 28.3H39.3421ZM46.2968 30.064C46.2968 28.024 46.7048 26.236 47.5208 24.7C48.3608 23.14 49.5128 21.94 50.9768 21.1C52.4408 20.26 54.1208 19.84 56.0168 19.84C58.4168 19.84 60.3968 20.416 61.9568 21.568C63.5408 22.696 64.6088 24.316 65.1608 26.428H60.7328C60.3728 25.444 59.7968 24.676 59.0048 24.124C58.2128 23.572 57.2168 23.296 56.0168 23.296C54.3368 23.296 52.9928 23.896 51.9848 25.096C51.0008 26.272 50.5088 27.928 50.5088 30.064C50.5088 32.2 51.0008 33.868 51.9848 35.068C52.9928 36.268 54.3368 36.868 56.0168 36.868C58.3928 36.868 59.9648 35.824 60.7328 33.736H65.1608C64.5848 35.752 63.5048 37.36 61.9208 38.56C60.3368 39.736 58.3688 40.324 56.0168 40.324C54.1208 40.324 52.4408 39.904 50.9768 39.064C49.5128 38.2 48.3608 37 47.5208 35.464C46.7048 33.904 46.2968 32.104 46.2968 30.064ZM87.4308 29.596C87.4308 30.34 87.3828 31.012 87.2868 31.612H72.1308C72.2508 33.196 72.8388 34.468 73.8948 35.428C74.9508 36.388 76.2468 36.868 77.7828 36.868C79.9908 36.868 81.5508 35.944 82.4628 34.096H86.8908C86.2908 35.92 85.1988 37.42 83.6148 38.596C82.0548 39.748 80.1108 40.324 77.7828 40.324C75.8868 40.324 74.1828 39.904 72.6708 39.064C71.1828 38.2 70.0068 37 69.1428 35.464C68.3028 33.904 67.8828 32.104 67.8828 30.064C67.8828 28.024 68.2908 26.236 69.1068 24.7C69.9468 23.14 71.1108 21.94 72.5988 21.1C74.1108 20.26 75.8388 19.84 77.7828 19.84C79.6548 19.84 81.3228 20.248 82.7868 21.064C84.2508 21.88 85.3908 23.032 86.2068 24.52C87.0228 25.984 87.4308 27.676 87.4308 29.596ZM83.1468 28.3C83.1228 26.788 82.5828 25.576 81.5268 24.664C80.4708 23.752 79.1628 23.296 77.6028 23.296C76.1868 23.296 74.9748 23.752 73.9668 24.664C72.9588 25.552 72.3588 26.764 72.1668 28.3H83.1468ZM95.5735 23.08C96.2695 22.168 97.2175 21.4 98.4175 20.776C99.6175 20.152 100.974 19.84 102.486 19.84C104.214 19.84 105.786 20.272 107.202 21.136C108.642 21.976 109.77 23.164 110.586 24.7C111.402 26.236 111.81 28 111.81 29.992C111.81 31.984 111.402 33.772 110.586 35.356C109.77 36.916 108.642 38.14 107.202 39.028C105.786 39.892 104.214 40.324 102.486 40.324C100.974 40.324 99.6295 40.024 98.4535 39.424C97.2775 38.8 96.3175 38.032 95.5735 37.12V49.432H91.4695V20.164H95.5735V23.08ZM107.634 29.992C107.634 28.624 107.346 27.448 106.77 26.464C106.218 25.456 105.474 24.7 104.538 24.196C103.626 23.668 102.642 23.404 101.586 23.404C100.554 23.404 99.5695 23.668 98.6335 24.196C97.7215 24.724 96.9775 25.492 96.4015 26.5C95.8495 27.508 95.5735 28.696 95.5735 30.064C95.5735 31.432 95.8495 32.632 96.4015 33.664C96.9775 34.672 97.7215 35.44 98.6335 35.968C99.5695 36.496 100.554 36.76 101.586 36.76C102.642 36.76 103.626 36.496 104.538 35.968C105.474 35.416 106.218 34.624 106.77 33.592C107.346 32.56 107.634 31.36 107.634 29.992ZM120.656 23.512V34.492C120.656 35.236 120.824 35.776 121.16 36.112C121.52 36.424 122.12 36.58 122.96 36.58H125.48V40H122.24C120.392 40 118.976 39.568 117.992 38.704C117.008 37.84 116.516 36.436 116.516 34.492V23.512H114.176V20.164H116.516V15.232H120.656V20.164H125.48V23.512H120.656ZM131.351 17.536C130.607 17.536 129.983 17.284 129.479 16.78C128.975 16.276 128.723 15.652 128.723 14.908C128.723 14.164 128.975 13.54 129.479 13.036C129.983 12.532 130.607 12.28 131.351 12.28C132.071 12.28 132.683 12.532 133.187 13.036C133.691 13.54 133.943 14.164 133.943 14.908C133.943 15.652 133.691 16.276 133.187 16.78C132.683 17.284 132.071 17.536 131.351 17.536ZM133.367 20.164V40H129.263V20.164H133.367Z" fill="#D77FA1"/>
<path d="M1.61914 68C54.1434 52.6607 86.1952 53.1189 147.333 68" stroke="#D77FA1" stroke-width="3" stroke-linecap="round"/>
</svg>
