<svg width="94" height="44" viewBox="0 0 94 44" fill="none" xmlns="http://www.w3.org/2000/svg">
<path d="M11.464 26L7.624 19.328H5.536V26H2.8V9.32H8.56C9.84 9.32 10.92 9.544 11.8 9.992C12.696 10.44 13.36 11.04 13.792 11.792C14.24 12.544 14.464 13.384 14.464 14.312C14.464 15.4 14.144 16.392 13.504 17.288C12.88 18.168 11.912 18.768 10.6 19.088L14.728 26H11.464ZM5.536 17.144H8.56C9.584 17.144 10.352 16.888 10.864 16.376C11.392 15.864 11.656 15.176 11.656 14.312C11.656 13.448 11.4 12.776 10.888 12.296C10.376 11.8 9.6 11.552 8.56 11.552H5.536V17.144ZM30.0841 19.064C30.0841 19.56 30.0521 20.008 29.9881 20.408H19.8841C19.9641 21.464 20.3561 22.312 21.0601 22.952C21.7641 23.592 22.6281 23.912 23.6521 23.912C25.1241 23.912 26.1641 23.296 26.7721 22.064H29.7241C29.3241 23.28 28.5961 24.28 27.5401 25.064C26.5001 25.832 25.2041 26.216 23.6521 26.216C22.3881 26.216 21.2521 25.936 20.2441 25.376C19.2521 24.8 18.4681 24 17.8921 22.976C17.3321 21.936 17.0521 20.736 17.0521 19.376C17.0521 18.016 17.3241 16.824 17.8681 15.8C18.4281 14.76 19.2041 13.96 20.1961 13.4C21.2041 12.84 22.3561 12.56 23.6521 12.56C24.9001 12.56 26.0121 12.832 26.9881 13.376C27.9641 13.92 28.7241 14.688 29.2681 15.68C29.8121 16.656 30.0841 17.784 30.0841 19.064ZM27.2281 18.2C27.2121 17.192 26.8521 16.384 26.1481 15.776C25.4441 15.168 24.5721 14.864 23.5321 14.864C22.5881 14.864 21.7801 15.168 21.1081 15.776C20.4361 16.368 20.0361 17.176 19.9081 18.2H27.2281ZM31.8646 19.376C31.8646 18.016 32.1366 16.824 32.6806 15.8C33.2406 14.76 34.0086 13.96 34.9846 13.4C35.9606 12.84 37.0806 12.56 38.3446 12.56C39.9446 12.56 41.2646 12.944 42.3046 13.712C43.3606 14.464 44.0726 15.544 44.4406 16.952H41.4886C41.2486 16.296 40.8646 15.784 40.3366 15.416C39.8086 15.048 39.1446 14.864 38.3446 14.864C37.2246 14.864 36.3286 15.264 35.6566 16.064C35.0006 16.848 34.6726 17.952 34.6726 19.376C34.6726 20.8 35.0006 21.912 35.6566 22.712C36.3286 23.512 37.2246 23.912 38.3446 23.912C39.9286 23.912 40.9766 23.216 41.4886 21.824H44.4406C44.0566 23.168 43.3366 24.24 42.2806 25.04C41.2246 25.824 39.9126 26.216 38.3446 26.216C37.0806 26.216 35.9606 25.936 34.9846 25.376C34.0086 24.8 33.2406 24 32.6806 22.976C32.1366 21.936 31.8646 20.736 31.8646 19.376ZM59.2872 19.064C59.2872 19.56 59.2552 20.008 59.1912 20.408H49.0872C49.1672 21.464 49.5592 22.312 50.2632 22.952C50.9672 23.592 51.8312 23.912 52.8552 23.912C54.3272 23.912 55.3672 23.296 55.9752 22.064H58.9272C58.5272 23.28 57.7992 24.28 56.7432 25.064C55.7032 25.832 54.4072 26.216 52.8552 26.216C51.5912 26.216 50.4552 25.936 49.4472 25.376C48.4552 24.8 47.6712 24 47.0952 22.976C46.5352 21.936 46.2552 20.736 46.2552 19.376C46.2552 18.016 46.5272 16.824 47.0712 15.8C47.6312 14.76 48.4072 13.96 49.3992 13.4C50.4072 12.84 51.5592 12.56 52.8552 12.56C54.1032 12.56 55.2152 12.832 56.1912 13.376C57.1672 13.92 57.9272 14.688 58.4712 15.68C59.0152 16.656 59.2872 17.784 59.2872 19.064ZM56.4312 18.2C56.4152 17.192 56.0552 16.384 55.3512 15.776C54.6472 15.168 53.7752 14.864 52.7352 14.864C51.7912 14.864 50.9832 15.168 50.3112 15.776C49.6392 16.368 49.2392 17.176 49.1112 18.2H56.4312ZM64.7157 14.72C65.1797 14.112 65.8117 13.6 66.6117 13.184C67.4117 12.768 68.3157 12.56 69.3237 12.56C70.4757 12.56 71.5237 12.848 72.4677 13.424C73.4277 13.984 74.1797 14.776 74.7237 15.8C75.2677 16.824 75.5397 18 75.5397 19.328C75.5397 20.656 75.2677 21.848 74.7237 22.904C74.1797 23.944 73.4277 24.76 72.4677 25.352C71.5237 25.928 70.4757 26.216 69.3237 26.216C68.3157 26.216 67.4197 26.016 66.6357 25.616C65.8517 25.2 65.2117 24.688 64.7157 24.08V32.288H61.9797V12.776H64.7157V14.72ZM72.7557 19.328C72.7557 18.416 72.5637 17.632 72.1797 16.976C71.8117 16.304 71.3157 15.8 70.6917 15.464C70.0837 15.112 69.4277 14.936 68.7237 14.936C68.0357 14.936 67.3797 15.112 66.7557 15.464C66.1477 15.816 65.6517 16.328 65.2677 17C64.8997 17.672 64.7157 18.464 64.7157 19.376C64.7157 20.288 64.8997 21.088 65.2677 21.776C65.6517 22.448 66.1477 22.96 66.7557 23.312C67.3797 23.664 68.0357 23.84 68.7237 23.84C69.4277 23.84 70.0837 23.664 70.6917 23.312C71.3157 22.944 71.8117 22.416 72.1797 21.728C72.5637 21.04 72.7557 20.24 72.7557 19.328ZM81.4373 15.008V22.328C81.4373 22.824 81.5493 23.184 81.7733 23.408C82.0133 23.616 82.4133 23.72 82.9733 23.72H84.6533V26H82.4933C81.2613 26 80.3173 25.712 79.6613 25.136C79.0053 24.56 78.6773 23.624 78.6773 22.328V15.008H77.1173V12.776H78.6773V9.488H81.4373V12.776H84.6533V15.008H81.4373ZM88.567 11.024C88.071 11.024 87.655 10.856 87.319 10.52C86.983 10.184 86.815 9.768 86.815 9.272C86.815 8.776 86.983 8.36 87.319 8.024C87.655 7.688 88.071 7.52 88.567 7.52C89.047 7.52 89.455 7.688 89.791 8.024C90.127 8.36 90.295 8.776 90.295 9.272C90.295 9.768 90.127 10.184 89.791 10.52C89.455 10.856 89.047 11.024 88.567 11.024ZM89.911 12.776V26H87.175V12.776H89.911Z" fill="#FFF9F9"/>
<path d="M2 42C34.4414 32.5257 54.2381 32.8087 92 42" stroke="#D6E5FA" stroke-width="3" stroke-linecap="round"/>
</svg>
