<svg width="829" height="547" viewBox="0 0 829 547" fill="none" xmlns="http://www.w3.org/2000/svg">
<path d="M374.841 88.8521C186.301 -41.9193 89.1667 -1.49996 -0.999953 46C-0.999833 135.5 -1.00004 350 -0.999833 486.5C-0.999638 613.542 564.174 501.685 710.341 463.352C1013.84 370.352 623.671 305.611 729.341 185.852C781.841 126.352 774.341 200.852 624.841 78.3521C581.341 36.352 523.341 191.852 374.841 88.8521Z" fill="#D77FA1" stroke="#FAEAEE"/>
<g clip-path="url(#clip0_51_206)">
<path d="M125.889 365.462L122.359 351.534C116.099 348.88 109.695 346.582 103.177 344.65L102.731 351.123L100.924 343.992C92.84 341.683 87.3406 340.666 87.3406 340.666C87.3406 340.666 94.769 368.922 110.35 390.524L128.504 393.714L114.4 395.748C116.361 398.107 118.468 400.341 120.709 402.436C143.375 423.48 168.619 433.135 177.095 424.001C185.571 414.867 174.068 390.403 151.403 369.359C144.377 362.835 135.55 357.599 126.714 353.479L125.889 365.462Z" fill="#E6E6E6"/>
<path d="M159.464 350.337L163.639 336.589C159.652 331.08 155.357 325.802 150.776 320.778L147.049 326.088L149.187 319.049C143.46 312.893 139.278 309.179 139.278 309.179C139.278 309.179 131.036 337.208 133.21 363.756L147.103 375.874L133.979 370.323C134.438 373.356 135.087 376.358 135.923 379.31C144.451 409.043 161.073 430.362 173.048 426.925C185.024 423.488 187.819 396.598 179.291 366.864C176.648 357.647 171.797 348.601 166.362 340.505L159.464 350.337Z" fill="#E6E6E6"/>
<path d="M548.278 379.96L556.193 374.983C556.582 370.575 556.721 366.148 556.612 361.723L552.516 362.744L556.568 360.196C556.378 354.726 555.906 351.117 555.906 351.117C555.906 351.117 539.903 361.378 529.651 375.355L531.313 387.239L527.229 378.91C526.161 380.597 525.201 382.35 524.353 384.158C515.866 402.411 514.946 419.982 522.298 423.402C529.65 426.822 542.49 414.797 550.977 396.543C553.608 390.884 555.081 384.368 555.861 378.07L548.278 379.96Z" fill="#E6E6E6"/>
<path d="M564.367 397.725L573.713 397.558C576.324 393.985 578.732 390.267 580.924 386.423L576.89 385.179L581.676 385.093C584.34 380.313 585.801 376.978 585.801 376.978C585.801 376.978 566.799 377.488 550.801 384.153L546.082 395.185L546.89 385.944C545.104 386.836 543.376 387.839 541.716 388.948C525.018 400.186 515.151 414.752 519.677 421.481C524.204 428.21 541.409 424.555 558.107 413.317C563.284 409.833 567.911 405.017 571.834 400.029L564.367 397.725Z" fill="#E6E6E6"/>
<path d="M586.583 426.886H88.4788V428.143H586.583V426.886Z" fill="#3F3D56"/>
<path d="M229.887 141.042L228.597 140.395L225.102 147.363L226.392 148.01L229.887 141.042Z" fill="white"/>
<path d="M222.454 315.409L222.026 315.458L222.295 317.767L222.723 317.717L222.454 315.409Z" fill="#3F3D56"/>
<path d="M225.005 335.78L224.87 335.371L222.665 336.103L222.8 336.512L225.005 335.78Z" fill="white"/>
<path d="M223.006 323.814L222.577 323.84L222.716 326.159L223.146 326.133L223.006 323.814Z" fill="white"/>
<path d="M220.999 311.094L220.569 311.12L220.709 313.439L221.138 313.413L220.999 311.094Z" fill="white"/>
<path d="M251.687 320.582L251.526 320.182L249.372 321.053L249.533 321.452L251.687 320.582Z" fill="#FF6584"/>
<path d="M226.29 319.903L225.875 319.792L225.273 322.036L225.689 322.148L226.29 319.903Z" fill="#FF6584"/>
<path d="M249.391 145.969H248.034V153.295H249.391V145.969Z" fill="#3F3D56"/>
<path d="M248.577 163.607H247.221V170.933H248.577V163.607Z" fill="white"/>
<path d="M247.55 316.729L247.264 316.443L245.72 317.987L246.006 318.273L247.55 316.729Z" fill="white"/>
<path d="M251.609 340.122L251.323 339.836L249.78 341.381L250.066 341.667L251.609 340.122Z" fill="white"/>
<path d="M248.371 330.426L247.98 330.321L247.415 332.431L247.805 332.535L248.371 330.426Z" fill="#FF6584"/>
<path d="M249.379 322.448L249.094 322.162L247.55 323.707L247.836 323.993L249.379 322.448Z" fill="#FF6584"/>
<path d="M243.17 322.185C243.517 321.837 243.713 321.366 243.713 320.873C243.713 320.381 243.517 319.909 243.17 319.561C242.822 319.213 242.35 319.018 241.858 319.018C241.366 319.018 240.894 319.213 240.546 319.561L181.359 378.765C181.011 379.113 180.816 379.585 180.816 380.077C180.816 380.569 181.011 381.041 181.359 381.389C181.707 381.737 182.179 381.933 182.671 381.933C183.163 381.933 183.635 381.737 183.982 381.389L242.789 322.566" fill="#3F3D56"/>
<path d="M249.219 314.713C244.908 310.406 239.305 307.63 233.267 306.809C227.23 305.989 221.089 307.169 215.786 310.17C210.482 313.171 206.307 317.827 203.899 323.426C201.491 329.025 200.983 335.259 202.453 341.174C203.922 347.089 207.288 352.36 212.036 356.18C216.784 360.001 222.652 362.161 228.743 362.329C234.834 362.498 240.812 360.666 245.764 357.114C250.716 353.562 254.368 348.485 256.162 342.66C257.654 337.811 257.797 332.646 256.573 327.722C255.35 322.798 252.807 318.3 249.219 314.713V314.713ZM226.388 345.065C224.469 344.532 222.72 343.511 221.312 342.102C221.027 341.817 220.764 341.516 220.511 341.21C218.772 339.067 217.856 336.373 217.929 333.613C218.002 330.854 219.058 328.211 220.908 326.163C222.758 324.115 225.279 322.795 228.016 322.443C230.753 322.091 233.526 322.73 235.834 324.243C238.141 325.756 239.832 328.045 240.601 330.696C241.369 333.347 241.165 336.186 240.025 338.7C238.885 341.213 236.884 343.237 234.383 344.404C231.882 345.571 229.047 345.806 226.388 345.065Z" fill="#D77FA1"/>
<path d="M186.022 159.625C186.022 157.974 185.367 156.391 184.2 155.223C183.033 154.056 181.45 153.4 179.8 153.4C178.15 153.4 176.567 154.056 175.4 155.223C174.233 156.391 173.578 157.974 173.578 159.625V421.954C173.578 422.772 173.739 423.581 174.051 424.336C174.364 425.091 174.822 425.778 175.4 426.355C175.978 426.933 176.664 427.392 177.419 427.705C178.174 428.017 178.983 428.178 179.8 428.178C180.617 428.178 181.426 428.017 182.181 427.705C182.936 427.392 183.622 426.933 184.2 426.355C184.778 425.778 185.236 425.091 185.549 424.336C185.861 423.581 186.022 422.772 186.022 421.954V161.432" fill="#3F3D56"/>
<path d="M265.395 157.299C254.71 137.084 237 121.478 215.604 113.425C194.208 105.372 170.606 105.428 149.249 113.584C127.892 121.739 110.257 137.43 99.669 157.696C89.0813 177.962 86.2731 201.403 91.7742 223.598C97.2752 245.793 110.705 265.207 129.531 278.179C148.357 291.151 171.278 296.784 193.97 294.015C216.662 291.247 237.557 280.268 252.714 263.151C267.871 246.033 276.242 223.959 276.249 201.092C276.255 185.827 272.529 170.793 265.395 157.299V157.299ZM201.725 234.892C194.301 239.084 185.705 240.713 177.263 239.528C168.821 238.343 161.005 234.411 155.021 228.338C149.037 222.265 145.22 214.39 144.158 205.929C143.096 197.469 144.85 188.894 149.147 181.531C153.445 174.167 160.048 168.424 167.935 165.189C175.822 161.954 184.554 161.407 192.783 163.634C201.012 165.86 208.278 170.735 213.46 177.505C218.642 184.276 221.45 192.565 221.451 201.092C221.472 207.973 219.654 214.734 216.186 220.677C212.718 226.619 207.725 231.527 201.725 234.892H201.725Z" fill="#D77FA1"/>
<path opacity="0.2" d="M182.387 288.735C158.071 288.735 134.711 279.268 117.251 262.34C99.7922 245.411 89.6051 222.35 88.8473 198.04C88.8149 199.053 88.7983 200.069 88.7976 201.09C88.7946 213.385 91.2131 225.561 95.9151 236.922C100.617 248.282 107.51 258.605 116.201 267.301C124.892 275.996 135.21 282.894 146.566 287.6C157.923 292.306 170.094 294.728 182.387 294.728C194.679 294.728 206.851 292.306 218.207 287.6C229.563 282.894 239.881 275.996 248.572 267.301C257.263 258.605 264.156 248.282 268.858 236.922C273.56 225.561 275.978 213.385 275.975 201.09C275.975 200.068 275.959 199.05 275.926 198.036C275.169 222.347 264.982 245.409 247.523 262.339C230.064 279.268 206.702 288.735 182.387 288.735V288.735Z" fill="black"/>
<path opacity="0.2" d="M182.658 154.378C173.422 154.379 164.394 157.118 156.715 162.251C149.035 167.384 143.05 174.68 139.516 183.215C135.982 191.75 135.058 201.142 136.86 210.203C138.662 219.264 143.109 227.587 149.64 234.119C156.17 240.652 164.491 245.1 173.549 246.903C182.608 248.705 191.997 247.78 200.53 244.245C209.062 240.71 216.356 234.724 221.487 227.042C226.619 219.361 229.358 210.33 229.358 201.092C229.344 188.707 224.42 176.833 215.665 168.075C206.91 159.318 195.039 154.392 182.658 154.378V154.378ZM201.725 234.892C194.301 239.084 185.705 240.713 177.263 239.528C168.821 238.343 161.005 234.411 155.021 228.338C149.037 222.265 145.22 214.39 144.158 205.929C143.096 197.469 144.85 188.894 149.147 181.531C153.445 174.167 160.047 168.424 167.935 165.189C175.822 161.954 184.554 161.407 192.783 163.634C201.012 165.86 208.278 170.735 213.46 177.505C218.642 184.276 221.45 192.565 221.451 201.092C221.471 207.973 219.654 214.734 216.186 220.677C212.717 226.619 207.725 231.527 201.725 234.892V234.892Z" fill="black"/>
<path d="M265.396 156.174V171.747C265.397 172.884 265.057 173.995 264.421 174.938C263.785 175.88 262.881 176.61 261.827 177.035C260.772 177.459 259.615 177.557 258.504 177.318C257.392 177.078 256.378 176.511 255.592 175.69V177.465C255.592 179.259 254.88 180.979 253.611 182.248C252.343 183.517 250.623 184.229 248.829 184.229C247.036 184.229 245.316 183.517 244.047 182.248C242.779 180.979 242.066 179.259 242.066 177.465V175.986C241.248 176.722 240.235 177.205 239.148 177.376C238.061 177.548 236.948 177.4 235.943 176.951C234.938 176.503 234.085 175.773 233.487 174.849C232.888 173.925 232.571 172.848 232.572 171.747L232.301 155.195V151.377C232.3 150.766 232.056 150.18 231.624 149.748C231.192 149.317 230.606 149.074 229.995 149.074C229.384 149.074 228.798 149.317 228.366 149.748C227.933 150.18 227.69 150.766 227.689 151.377V155.195L227.418 169.034C227.418 170.545 226.818 171.994 225.749 173.063C224.681 174.132 223.232 174.732 221.721 174.732C220.21 174.732 218.761 174.132 217.693 173.063C216.624 171.994 216.024 170.545 216.024 169.034L215.327 155.195V148.121C215.327 147.118 214.929 146.157 214.22 145.448C213.512 144.739 212.551 144.341 211.548 144.341C210.546 144.341 209.585 144.739 208.876 145.448C208.168 146.157 207.769 147.118 207.769 148.121V155.195L207.344 169.034C207.345 170.219 206.976 171.375 206.289 172.34C205.602 173.306 204.63 174.033 203.511 174.42C202.391 174.807 201.178 174.835 200.042 174.5C198.905 174.165 197.902 173.483 197.171 172.55C196.27 173.702 194.96 174.463 193.513 174.673C192.065 174.883 190.593 174.527 189.402 173.679V177.465C189.402 179.259 188.689 180.979 187.421 182.248C186.153 183.517 184.432 184.229 182.639 184.229C180.845 184.229 179.125 183.517 177.857 182.248C176.589 180.979 175.876 179.259 175.876 177.465V165.778C175.877 167.081 175.43 168.345 174.611 169.359C173.792 170.373 172.65 171.076 171.376 171.349C170.102 171.623 168.772 171.45 167.609 170.862C166.447 170.273 165.521 169.303 164.987 168.114V177.465C164.987 179.259 164.275 180.979 163.006 182.248C161.738 183.517 160.018 184.229 158.224 184.229C156.431 184.229 154.711 183.517 153.442 182.248C152.174 180.979 151.461 179.259 151.461 177.465V155.195H151.424V177.465C151.424 179.259 150.711 180.979 149.443 182.248C148.174 183.517 146.454 184.229 144.661 184.229C142.867 184.229 141.147 183.517 139.879 182.248C138.61 180.979 137.898 179.259 137.898 177.465V168.193C137.349 169.367 136.417 170.318 135.254 170.891C134.091 171.463 132.768 171.621 131.504 171.34C130.239 171.058 129.108 170.354 128.298 169.342C127.487 168.331 127.046 167.074 127.047 165.778V155.195H126.466V174.208C126.466 176.002 125.754 177.723 124.486 178.992C123.217 180.26 121.497 180.973 119.704 180.973C117.91 180.973 116.19 180.26 114.922 178.992C113.653 177.723 112.941 176.002 112.941 174.208V165.778C112.942 166.526 112.795 167.268 112.509 167.96C112.223 168.652 111.803 169.281 111.274 169.811C110.745 170.34 110.117 170.76 109.425 171.047C108.734 171.334 107.993 171.482 107.244 171.482C106.496 171.482 105.754 171.334 105.063 171.047C104.371 170.76 103.743 170.34 103.214 169.811C102.685 169.281 102.265 168.652 101.979 167.96C101.693 167.268 101.547 166.526 101.547 165.778V153.233C109.902 138.734 121.989 126.74 136.549 118.498C151.109 110.256 167.611 106.067 184.339 106.367C201.066 106.667 217.408 111.446 231.663 120.205C245.918 128.965 257.566 141.385 265.396 156.174V156.174Z" fill="#E6E6E6"/>
<path opacity="0.2" d="M144.661 180.973C143.773 180.973 142.893 180.798 142.073 180.458C141.252 180.118 140.507 179.62 139.879 178.992C139.251 178.364 138.752 177.618 138.413 176.797C138.073 175.976 137.898 175.097 137.898 174.208V177.736C137.898 179.53 138.61 181.251 139.879 182.519C141.147 183.788 142.867 184.501 144.661 184.501C146.454 184.501 148.175 183.788 149.443 182.519C150.711 181.251 151.424 179.53 151.424 177.736V174.208C151.424 175.097 151.249 175.976 150.909 176.797C150.569 177.618 150.071 178.364 149.443 178.992C148.815 179.62 148.069 180.118 147.249 180.458C146.428 180.798 145.549 180.973 144.661 180.973Z" fill="black"/>
<path opacity="0.2" d="M158.224 180.973C157.336 180.973 156.457 180.798 155.636 180.458C154.816 180.118 154.07 179.62 153.442 178.992C152.814 178.364 152.316 177.618 151.976 176.797C151.636 175.976 151.462 175.097 151.462 174.208V177.736C151.462 179.53 152.174 181.251 153.442 182.519C154.711 183.788 156.431 184.501 158.225 184.501C160.018 184.501 161.738 183.788 163.007 182.519C164.275 181.251 164.987 179.53 164.987 177.736V174.208C164.987 175.097 164.813 175.976 164.473 176.797C164.133 177.618 163.635 178.364 163.007 178.992C162.379 179.62 161.633 180.118 160.813 180.458C159.992 180.798 159.113 180.973 158.224 180.973V180.973Z" fill="black"/>
<path opacity="0.2" d="M137.898 164.936C137.349 166.11 136.417 167.062 135.254 167.634C134.092 168.207 132.769 168.365 131.504 168.084C130.239 167.802 129.108 167.098 128.298 166.086C127.488 165.075 127.046 163.817 127.047 162.521V166.049C127.046 167.345 127.488 168.603 128.298 169.614C129.108 170.625 130.239 171.33 131.504 171.611C132.769 171.893 134.092 171.734 135.254 171.162C136.417 170.59 137.349 169.638 137.898 168.464V164.936Z" fill="black"/>
<path opacity="0.2" d="M151.462 151.939H151.424V155.466H151.462V151.939Z" fill="black"/>
<path opacity="0.2" d="M112.941 162.521C112.939 164.032 112.338 165.48 111.27 166.547C110.202 167.614 108.754 168.214 107.244 168.214C105.734 168.214 104.286 167.614 103.218 166.547C102.15 165.48 101.549 164.032 101.547 162.521V166.049C101.549 167.559 102.15 169.007 103.218 170.075C104.286 171.142 105.734 171.742 107.244 171.742C108.754 171.742 110.202 171.142 111.27 170.075C112.338 169.007 112.939 167.559 112.941 166.049V162.521Z" fill="black"/>
<path opacity="0.2" d="M127.047 151.939H126.467V155.466H127.047V151.939Z" fill="black"/>
<path opacity="0.2" d="M119.704 177.717C118.816 177.717 117.936 177.542 117.116 177.202C116.295 176.862 115.55 176.364 114.922 175.736C114.294 175.108 113.795 174.362 113.456 173.541C113.116 172.72 112.941 171.841 112.941 170.952V174.48C112.941 176.274 113.653 177.994 114.922 179.263C116.19 180.532 117.91 181.244 119.704 181.244C121.497 181.244 123.218 180.532 124.486 179.263C125.754 177.994 126.467 176.274 126.467 174.48V170.952C126.467 171.841 126.292 172.72 125.952 173.541C125.612 174.362 125.114 175.108 124.486 175.736C123.858 176.364 123.112 176.862 122.292 177.202C121.471 177.542 120.592 177.717 119.704 177.717V177.717Z" fill="black"/>
<path opacity="0.2" d="M182.639 180.973C181.751 180.973 180.871 180.798 180.051 180.458C179.23 180.118 178.485 179.62 177.857 178.992C177.229 178.364 176.73 177.618 176.391 176.797C176.051 175.976 175.876 175.097 175.876 174.208V177.736C175.876 179.53 176.588 181.251 177.857 182.519C179.125 183.788 180.845 184.501 182.639 184.501C184.432 184.501 186.153 183.788 187.421 182.519C188.689 181.251 189.402 179.53 189.402 177.736V174.208C189.402 175.097 189.227 175.976 188.887 176.797C188.547 177.618 188.049 178.364 187.421 178.992C186.793 179.62 186.047 180.118 185.227 180.458C184.406 180.798 183.527 180.973 182.639 180.973Z" fill="black"/>
<path opacity="0.2" d="M232.301 148.121C232.301 147.509 232.058 146.922 231.625 146.49C231.193 146.057 230.607 145.814 229.995 145.814C229.383 145.814 228.797 146.057 228.365 146.49C227.932 146.922 227.689 147.509 227.689 148.121V151.648C227.689 151.345 227.748 151.045 227.864 150.765C227.979 150.484 228.149 150.23 228.363 150.015C228.577 149.801 228.832 149.63 229.112 149.514C229.392 149.398 229.692 149.338 229.995 149.338C230.298 149.338 230.598 149.398 230.878 149.514C231.158 149.63 231.413 149.801 231.627 150.015C231.841 150.23 232.011 150.484 232.126 150.765C232.242 151.045 232.301 151.345 232.301 151.648V148.121Z" fill="black"/>
<path opacity="0.2" d="M175.876 162.521C175.877 163.825 175.43 165.089 174.611 166.103C173.792 167.117 172.65 167.82 171.376 168.093C170.102 168.366 168.772 168.194 167.61 167.606C166.447 167.017 165.521 166.047 164.987 164.858V168.385C165.521 169.574 166.447 170.544 167.61 171.133C168.772 171.722 170.102 171.894 171.376 171.621C172.65 171.347 173.792 170.645 174.611 169.631C175.43 168.617 175.877 167.352 175.876 166.049V162.521Z" fill="black"/>
<path opacity="0.2" d="M221.721 171.476C220.973 171.476 220.232 171.329 219.541 171.042C218.85 170.756 218.222 170.336 217.693 169.807C217.164 169.278 216.744 168.65 216.458 167.958C216.172 167.267 216.024 166.526 216.024 165.778L215.327 151.939V155.466L216.024 169.305C216.024 170.816 216.625 172.266 217.693 173.334C218.761 174.403 220.21 175.003 221.721 175.003C223.232 175.003 224.681 174.403 225.749 173.334C226.818 172.266 227.418 170.816 227.418 169.305L227.689 155.466V151.939L227.418 165.778C227.418 166.526 227.271 167.267 226.984 167.958C226.698 168.65 226.278 169.278 225.749 169.807C225.22 170.336 224.592 170.756 223.901 171.042C223.21 171.329 222.469 171.476 221.721 171.476V171.476Z" fill="black"/>
<path opacity="0.2" d="M259.699 174.189C258.932 174.19 258.172 174.034 257.466 173.732C256.76 173.431 256.123 172.989 255.592 172.434V174.208C255.592 176.002 254.88 177.723 253.611 178.992C252.343 180.26 250.623 180.973 248.829 180.973C247.036 180.973 245.316 180.26 244.047 178.992C242.779 177.723 242.067 176.002 242.067 174.208V172.729C241.249 173.466 240.235 173.948 239.148 174.12C238.061 174.291 236.948 174.144 235.943 173.695C234.938 173.247 234.085 172.516 233.487 171.593C232.888 170.669 232.571 169.592 232.572 168.491L232.301 151.939V155.466L232.572 172.019C232.571 173.119 232.888 174.197 233.487 175.12C234.085 176.044 234.938 176.774 235.943 177.223C236.948 177.671 238.061 177.819 239.148 177.647C240.235 177.476 241.249 176.993 242.067 176.257V177.736C242.067 179.53 242.779 181.251 244.047 182.519C245.316 183.788 247.036 184.501 248.829 184.501C250.623 184.501 252.343 183.788 253.611 182.519C254.88 181.251 255.592 179.53 255.592 177.736V175.961C256.378 176.782 257.392 177.349 258.504 177.589C259.615 177.829 260.772 177.73 261.827 177.306C262.882 176.882 263.785 176.151 264.421 175.209C265.057 174.267 265.397 173.156 265.396 172.019V168.491C265.396 169.239 265.249 169.98 264.963 170.672C264.676 171.363 264.257 171.991 263.728 172.521C263.199 173.05 262.571 173.469 261.879 173.756C261.188 174.042 260.447 174.189 259.699 174.189V174.189Z" fill="black"/>
<path opacity="0.2" d="M201.647 171.476C200.784 171.476 199.933 171.279 199.157 170.901C198.382 170.523 197.702 169.974 197.171 169.294C196.27 170.446 194.96 171.207 193.513 171.417C192.065 171.627 190.593 171.271 189.402 170.423V173.951C190.593 174.799 192.065 175.155 193.513 174.944C194.96 174.734 196.27 173.974 197.171 172.822C197.902 173.755 198.905 174.436 200.042 174.771C201.178 175.106 202.391 175.078 203.511 174.691C204.63 174.304 205.601 173.577 206.289 172.612C206.976 171.646 207.344 170.49 207.344 169.305L207.769 155.466V151.939L207.344 165.778C207.344 166.526 207.196 167.267 206.91 167.958C206.624 168.65 206.204 169.278 205.675 169.807C205.146 170.336 204.518 170.756 203.827 171.042C203.136 171.329 202.395 171.476 201.647 171.476Z" fill="black"/>
<path opacity="0.2" d="M215.327 144.865C215.327 143.862 214.929 142.901 214.22 142.192C213.512 141.483 212.551 141.085 211.548 141.085C210.546 141.085 209.585 141.483 208.876 142.192C208.168 142.901 207.77 143.862 207.77 144.865V148.392C207.77 147.39 208.168 146.428 208.876 145.719C209.585 145.011 210.546 144.612 211.548 144.612C212.551 144.612 213.512 145.011 214.22 145.719C214.929 146.428 215.327 147.39 215.327 148.392V144.865Z" fill="black"/>
<path d="M152.14 145.562H150.783V152.888H152.14V145.562Z" fill="#3F3D56"/>
<path d="M177.775 141.627H176.419V148.954H177.775V141.627Z" fill="#3F3D56"/>
<path d="M145.222 170.39H143.866V177.717H145.222V170.39Z" fill="#3F3D56"/>
<path d="M200.625 157.589L199.51 156.817L195.342 162.841L196.458 163.613L200.625 157.589Z" fill="#3F3D56"/>
<path d="M128.801 146.013L127.959 147.077L133.703 151.623L134.544 150.559L128.801 146.013Z" fill="#3F3D56"/>
<path d="M208.555 118.607L207.713 119.671L213.457 124.217L214.299 123.153L208.555 118.607Z" fill="#3F3D56"/>
<path d="M113.881 153.611L113.039 154.675L118.783 159.221L119.625 158.157L113.881 153.611Z" fill="#3F3D56"/>
<path d="M157.158 128.331H155.802V135.658H157.158V128.331Z" fill="white"/>
<path d="M119.994 166.049H118.638V173.375H119.994V166.049Z" fill="white"/>
<path d="M183.472 117.749H182.115V125.075H183.472V117.749Z" fill="white"/>
<path d="M191.01 143.406L189.798 142.798L186.513 149.346L187.725 149.954L191.01 143.406Z" fill="white"/>
<path d="M184.771 170.541L183.558 169.933L180.274 176.481L181.486 177.089L184.771 170.541Z" fill="white"/>
<path d="M166.126 155.649L165.226 156.664L170.706 161.525L171.606 160.509L166.126 155.649Z" fill="white"/>
<path d="M139.27 123.901L138.37 124.916L143.85 129.777L144.75 128.761L139.27 123.901Z" fill="white"/>
<path d="M228.518 136.112L227.618 137.127L233.099 141.987L233.999 140.972L228.518 136.112Z" fill="white"/>
<path d="M195.694 112.233L194.795 113.248L200.275 118.109L201.175 117.093L195.694 112.233Z" fill="white"/>
<path d="M167.467 141.627H166.11V148.954H167.467V141.627Z" fill="#FF6584"/>
<path d="M243.986 146.254L242.738 145.724L239.875 152.468L241.124 152.998L243.986 146.254Z" fill="#FF6584"/>
<path d="M140.316 153.447L139.142 154.125L142.804 160.47L143.979 159.792L140.316 153.447Z" fill="#FF6584"/>
<path d="M217.9 148.291L216.726 148.97L220.388 155.315L221.562 154.636L217.9 148.291Z" fill="#FF6584"/>
<path d="M169.615 121.428L168.44 122.107L172.102 128.452L173.277 127.773L169.615 121.428Z" fill="#FF6584"/>
<path d="M227.124 120.071L225.949 120.749L229.611 127.094L230.786 126.416L227.124 120.071Z" fill="#FF6584"/>
<path d="M152.524 114.101L151.349 114.78L155.011 121.125L156.186 120.446L152.524 114.101Z" fill="#FF6584"/>
<path d="M201.376 126.975H200.019V134.301H201.376V126.975Z" fill="#FF6584"/>
<path d="M123.249 139.185H121.893V146.512H123.249V139.185Z" fill="#FF6584"/>
<path opacity="0.2" d="M210.965 352.866C205.839 347.739 202.91 340.818 202.797 333.569C202.684 326.319 205.397 319.31 210.36 314.026C210.14 314.233 209.922 314.444 209.707 314.659C207.114 317.25 205.058 320.326 203.654 323.712C202.251 327.099 201.528 330.728 201.527 334.394C201.526 338.06 202.248 341.69 203.65 345.077C205.052 348.464 207.107 351.541 209.698 354.133C212.29 356.725 215.366 358.781 218.752 360.183C222.138 361.586 225.767 362.307 229.432 362.307C233.096 362.306 236.725 361.583 240.11 360.179C243.496 358.775 246.571 356.718 249.162 354.125C249.377 353.909 249.588 353.691 249.794 353.471C244.512 358.436 237.505 361.149 230.257 361.036C223.01 360.923 216.09 357.993 210.965 352.866V352.866Z" fill="black"/>
<path opacity="0.2" d="M240.463 323.472C238.293 321.299 235.527 319.819 232.515 319.219C229.504 318.619 226.382 318.926 223.545 320.101C220.708 321.276 218.283 323.266 216.577 325.82C214.871 328.374 213.96 331.376 213.96 334.448C213.96 337.519 214.871 340.522 216.577 343.075C218.283 345.629 220.708 347.619 223.545 348.794C226.382 349.969 229.504 350.276 232.515 349.676C235.527 349.076 238.293 347.596 240.463 345.424C243.367 342.509 244.998 338.562 244.998 334.448C244.998 330.333 243.367 326.386 240.463 323.472V323.472ZM237.669 342.101C235.5 344.27 232.558 345.489 229.491 345.489C226.423 345.489 223.481 344.27 221.312 342.101C221.027 341.817 220.764 341.516 220.51 341.21C219.102 339.473 218.227 337.365 217.991 335.141C217.756 332.917 218.17 330.672 219.184 328.678C220.198 326.685 221.768 325.028 223.703 323.909C225.639 322.789 227.858 322.255 230.091 322.371C232.324 322.487 234.475 323.248 236.285 324.562C238.094 325.876 239.484 327.687 240.286 329.774C241.088 331.862 241.268 334.138 240.803 336.326C240.339 338.514 239.25 340.52 237.669 342.101V342.101Z" fill="black"/>
<path d="M256.721 342.102L253.439 345.384C253.2 345.624 252.894 345.787 252.561 345.851C252.229 345.916 251.884 345.879 251.573 345.746C251.261 345.613 250.996 345.39 250.813 345.105C250.629 344.821 250.535 344.487 250.542 344.148L250.168 344.522C249.79 344.901 249.277 345.113 248.742 345.113C248.208 345.113 247.695 344.901 247.317 344.522C246.939 344.144 246.726 343.631 246.726 343.097C246.726 342.562 246.939 342.049 247.317 341.671L247.629 341.359C247.301 341.342 246.986 341.23 246.72 341.037C246.455 340.844 246.252 340.578 246.134 340.271C246.017 339.965 245.991 339.631 246.06 339.31C246.128 338.989 246.288 338.695 246.52 338.464L249.951 334.917L250.756 334.113C250.885 333.984 250.957 333.809 250.957 333.626C250.957 333.444 250.885 333.269 250.756 333.14C250.627 333.011 250.452 332.939 250.27 332.939C250.087 332.939 249.913 333.011 249.784 333.14L248.979 333.945L246.006 336.805C245.687 337.123 245.255 337.302 244.805 337.302C244.355 337.302 243.923 337.123 243.604 336.805C243.286 336.486 243.107 336.054 243.107 335.604C243.107 335.153 243.286 334.721 243.604 334.403L246.373 331.339L247.864 329.847C248.074 329.636 248.191 329.35 248.191 329.052C248.19 328.754 248.071 328.468 247.861 328.257C247.65 328.047 247.365 327.928 247.067 327.927C246.769 327.927 246.483 328.044 246.271 328.254L244.78 329.745L241.774 332.572C240.426 331.773 238.986 331.139 237.486 330.685C237.237 330.436 237.072 330.116 237.014 329.768L236.216 330.566C235.838 330.945 235.325 331.157 234.79 331.157C234.256 331.157 233.743 330.945 233.365 330.566C232.987 330.188 232.774 329.675 232.774 329.14C232.774 328.606 232.987 328.093 233.365 327.715L235.828 325.251C235.553 325.526 235.192 325.698 234.806 325.739C234.42 325.78 234.031 325.688 233.705 325.477C233.379 325.266 233.135 324.949 233.014 324.58C232.893 324.21 232.902 323.811 233.04 323.448L231.07 325.419C230.691 325.797 230.179 326.009 229.644 326.009C229.109 326.009 228.597 325.797 228.218 325.419C227.84 325.04 227.628 324.528 227.628 323.993C227.628 323.458 227.84 322.945 228.218 322.567L232.911 317.873L232.903 317.865L228.21 322.559C227.832 322.937 227.32 323.149 226.785 323.149C226.25 323.149 225.738 322.937 225.359 322.559C224.981 322.181 224.769 321.668 224.769 321.133C224.769 320.598 224.981 320.085 225.359 319.707L227.313 317.752C226.95 317.884 226.553 317.888 226.187 317.764C225.822 317.639 225.51 317.394 225.302 317.068C225.095 316.742 225.005 316.355 225.047 315.971C225.09 315.587 225.262 315.229 225.535 314.956L227.765 312.725L227.643 312.602L223.636 316.61C223.258 316.988 222.745 317.201 222.21 317.201C221.676 317.201 221.163 316.988 220.785 316.61C220.407 316.232 220.194 315.719 220.194 315.184C220.194 314.65 220.407 314.137 220.785 313.758L222.562 311.981C222.243 312.3 221.811 312.479 221.361 312.479C220.91 312.479 220.478 312.3 220.16 311.981C219.842 311.663 219.663 311.231 219.663 310.78C219.663 310.33 219.842 309.898 220.16 309.579L222.803 306.935C227.62 305.64 232.695 305.66 237.501 306.993C242.307 308.326 246.668 310.922 250.131 314.512C253.594 318.103 256.031 322.555 257.19 327.408C258.349 332.26 258.187 337.334 256.721 342.102V342.102Z" fill="#E6E6E6"/>
<path opacity="0.2" d="M226.045 321.872C225.858 321.685 225.71 321.463 225.608 321.218C225.507 320.974 225.455 320.711 225.455 320.446C225.455 320.182 225.507 319.919 225.608 319.675C225.71 319.43 225.858 319.208 226.045 319.021L225.302 319.764C224.924 320.142 224.712 320.655 224.712 321.19C224.712 321.725 224.924 322.238 225.302 322.616C225.68 322.994 226.193 323.207 226.728 323.207C227.262 323.207 227.775 322.994 228.153 322.616L228.897 321.872C228.709 322.06 228.487 322.208 228.243 322.31C227.998 322.411 227.736 322.463 227.471 322.463C227.206 322.463 226.944 322.411 226.7 322.31C226.455 322.208 226.233 322.06 226.045 321.872V321.872Z" fill="black"/>
<path opacity="0.2" d="M228.905 324.732C228.717 324.545 228.569 324.323 228.468 324.078C228.366 323.833 228.314 323.571 228.314 323.306C228.314 323.042 228.366 322.779 228.468 322.535C228.569 322.29 228.717 322.068 228.905 321.88L228.161 322.624C227.974 322.811 227.826 323.034 227.724 323.278C227.623 323.523 227.571 323.785 227.571 324.05C227.571 324.315 227.623 324.577 227.724 324.822C227.826 325.066 227.974 325.289 228.161 325.476C228.348 325.663 228.571 325.812 228.815 325.913C229.06 326.014 229.322 326.066 229.587 326.066C229.852 326.066 230.114 326.014 230.358 325.913C230.603 325.812 230.825 325.663 231.012 325.476L231.756 324.732C231.568 324.92 231.346 325.068 231.102 325.169C230.857 325.271 230.595 325.323 230.33 325.323C230.065 325.323 229.803 325.271 229.559 325.169C229.314 325.068 229.092 324.92 228.905 324.732V324.732Z" fill="black"/>
<path opacity="0.2" d="M227.999 317.066C227.636 317.198 227.239 317.202 226.874 317.077C226.508 316.953 226.196 316.707 225.988 316.381C225.781 316.055 225.691 315.668 225.734 315.284C225.776 314.9 225.948 314.542 226.221 314.269L225.478 315.013C225.205 315.286 225.033 315.644 224.99 316.028C224.948 316.412 225.038 316.799 225.245 317.125C225.452 317.451 225.765 317.696 226.13 317.821C226.496 317.945 226.893 317.941 227.256 317.81L227.999 317.066Z" fill="black"/>
<path opacity="0.2" d="M233.589 317.178L232.846 317.922L232.854 317.93L233.597 317.186L233.589 317.178Z" fill="black"/>
<path opacity="0.2" d="M223.248 311.295C223.09 311.453 222.903 311.578 222.697 311.663C222.491 311.749 222.27 311.792 222.047 311.792C221.824 311.792 221.603 311.749 221.397 311.663C221.191 311.578 221.004 311.453 220.846 311.295C220.688 311.137 220.563 310.95 220.478 310.744C220.392 310.538 220.349 310.317 220.349 310.094C220.349 309.871 220.392 309.65 220.478 309.444C220.563 309.238 220.688 309.05 220.846 308.893L220.103 309.636C219.784 309.955 219.605 310.387 219.605 310.837C219.605 311.288 219.784 311.72 220.103 312.039C220.421 312.357 220.853 312.536 221.303 312.536C221.754 312.536 222.186 312.357 222.504 312.039L223.248 311.295Z" fill="black"/>
<path opacity="0.2" d="M228.329 311.916L227.585 312.66L227.708 312.782L228.451 312.039L228.329 311.916Z" fill="black"/>
<path opacity="0.2" d="M221.471 315.924C221.284 315.737 221.135 315.514 221.034 315.27C220.933 315.025 220.88 314.763 220.88 314.498C220.88 314.233 220.933 313.971 221.034 313.726C221.135 313.482 221.284 313.259 221.471 313.072L220.728 313.816C220.54 314.003 220.392 314.225 220.291 314.47C220.189 314.715 220.137 314.977 220.137 315.242C220.137 315.506 220.189 315.769 220.291 316.013C220.392 316.258 220.54 316.48 220.728 316.667C220.915 316.855 221.137 317.003 221.382 317.105C221.626 317.206 221.888 317.258 222.153 317.258C222.418 317.258 222.68 317.206 222.925 317.105C223.169 317.003 223.392 316.855 223.579 316.667L224.322 315.924C224.135 316.111 223.913 316.26 223.668 316.361C223.423 316.462 223.161 316.515 222.897 316.515C222.632 316.515 222.37 316.462 222.125 316.361C221.88 316.26 221.658 316.111 221.471 315.924V315.924Z" fill="black"/>
<path opacity="0.2" d="M234.051 329.88C233.864 329.693 233.715 329.47 233.614 329.226C233.512 328.981 233.46 328.719 233.46 328.454C233.46 328.189 233.512 327.927 233.614 327.682C233.715 327.438 233.864 327.215 234.051 327.028L233.308 327.772C233.12 327.959 232.972 328.181 232.871 328.426C232.769 328.671 232.717 328.933 232.717 329.198C232.717 329.462 232.769 329.725 232.871 329.969C232.972 330.214 233.12 330.436 233.308 330.624C233.495 330.811 233.717 330.959 233.962 331.061C234.206 331.162 234.468 331.214 234.733 331.214C234.998 331.214 235.26 331.162 235.505 331.061C235.749 330.959 235.971 330.811 236.159 330.624L236.902 329.88C236.715 330.067 236.492 330.216 236.248 330.317C236.003 330.419 235.741 330.471 235.476 330.471C235.212 330.471 234.949 330.419 234.705 330.317C234.46 330.216 234.238 330.067 234.051 329.88Z" fill="black"/>
<path opacity="0.2" d="M251.442 333.426C251.571 333.297 251.643 333.122 251.643 332.94C251.643 332.758 251.571 332.583 251.442 332.454C251.313 332.325 251.138 332.253 250.956 332.253C250.773 332.253 250.599 332.325 250.47 332.454L249.726 333.197C249.855 333.069 250.03 332.996 250.212 332.996C250.395 332.996 250.569 333.069 250.698 333.197C250.827 333.326 250.9 333.501 250.9 333.684C250.9 333.866 250.827 334.041 250.698 334.17L251.442 333.426Z" fill="black"/>
<path opacity="0.2" d="M236.514 324.565C236.239 324.84 235.879 325.012 235.492 325.053C235.106 325.094 234.717 325.001 234.391 324.79C234.065 324.579 233.821 324.263 233.7 323.893C233.579 323.524 233.588 323.124 233.726 322.761L232.983 323.505C232.845 323.868 232.836 324.268 232.957 324.637C233.078 325.006 233.321 325.323 233.648 325.534C233.974 325.745 234.363 325.838 234.749 325.797C235.135 325.756 235.496 325.583 235.77 325.308L236.514 324.565Z" fill="black"/>
<path opacity="0.2" d="M244.29 336.119C244.133 335.961 244.007 335.774 243.922 335.567C243.837 335.361 243.793 335.14 243.793 334.917C243.793 334.694 243.837 334.473 243.922 334.267C244.007 334.061 244.133 333.874 244.29 333.716L247.06 330.652L246.316 331.396L243.547 334.46C243.389 334.618 243.264 334.805 243.179 335.011C243.093 335.217 243.05 335.438 243.05 335.661C243.05 335.884 243.093 336.105 243.179 336.311C243.264 336.517 243.389 336.704 243.547 336.862C243.705 337.02 243.892 337.145 244.098 337.23C244.304 337.316 244.525 337.36 244.748 337.36C244.971 337.36 245.192 337.316 245.398 337.23C245.604 337.145 245.791 337.02 245.949 336.862L248.922 334.002L249.665 333.259L246.692 336.119C246.534 336.276 246.347 336.401 246.141 336.487C245.935 336.572 245.714 336.616 245.491 336.616C245.268 336.616 245.047 336.572 244.841 336.487C244.635 336.401 244.448 336.276 244.29 336.119V336.119Z" fill="black"/>
<path opacity="0.2" d="M251.724 344.698C251.562 344.536 251.434 344.343 251.349 344.131C251.264 343.918 251.223 343.691 251.228 343.462L250.854 343.836C250.667 344.023 250.445 344.172 250.2 344.273C249.955 344.375 249.693 344.427 249.428 344.427C249.164 344.427 248.902 344.375 248.657 344.273C248.412 344.172 248.19 344.023 248.003 343.836C247.816 343.649 247.667 343.427 247.566 343.182C247.465 342.937 247.413 342.675 247.413 342.41C247.413 342.145 247.465 341.883 247.566 341.638C247.667 341.394 247.816 341.172 248.003 340.984L248.315 340.673C247.987 340.655 247.672 340.543 247.406 340.35C247.141 340.157 246.938 339.891 246.82 339.585C246.703 339.279 246.677 338.945 246.746 338.624C246.814 338.303 246.974 338.009 247.206 337.777L250.637 334.231L249.894 334.975L246.463 338.521C246.231 338.752 246.071 339.047 246.002 339.367C245.934 339.688 245.96 340.022 246.077 340.329C246.194 340.635 246.398 340.901 246.663 341.094C246.928 341.287 247.244 341.399 247.571 341.416L247.26 341.728C246.882 342.106 246.669 342.619 246.669 343.154C246.669 343.689 246.882 344.201 247.26 344.58C247.638 344.958 248.15 345.17 248.685 345.17C249.22 345.17 249.733 344.958 250.111 344.58L250.485 344.206C250.477 344.544 250.572 344.878 250.755 345.163C250.939 345.447 251.204 345.671 251.515 345.804C251.827 345.937 252.172 345.973 252.504 345.909C252.837 345.844 253.143 345.681 253.382 345.442L254.125 344.698C253.968 344.856 253.78 344.981 253.574 345.066C253.368 345.152 253.148 345.196 252.925 345.196C252.702 345.196 252.481 345.152 252.275 345.066C252.069 344.981 251.881 344.856 251.724 344.698V344.698Z" fill="black"/>
<path opacity="0.2" d="M240.059 331.886C240.09 331.631 240.063 331.371 239.979 331.128C239.895 330.885 239.757 330.664 239.575 330.482C239.393 330.3 239.172 330.162 238.929 330.078C238.686 329.995 238.427 329.967 238.172 329.998C237.923 329.75 237.758 329.429 237.7 329.082L236.956 329.826C237.585 330.002 238.147 330.364 238.568 330.864C238.988 331.364 239.249 331.979 239.316 332.629C239.473 332.787 239.66 332.912 239.867 332.998C240.073 333.083 240.293 333.127 240.516 333.127C240.739 333.127 240.96 333.083 241.166 332.998C241.372 332.912 241.56 332.787 241.717 332.629L244.723 329.802L245.467 329.059L242.461 331.886C242.303 332.044 242.116 332.169 241.91 332.254C241.704 332.34 241.483 332.384 241.26 332.384C241.037 332.384 240.816 332.34 240.61 332.254C240.404 332.169 240.217 332.044 240.059 331.886V331.886Z" fill="black"/>
<path opacity="0.2" d="M248.55 329.161C248.656 329.057 248.739 328.932 248.796 328.795C248.854 328.659 248.883 328.512 248.883 328.363C248.884 328.215 248.855 328.068 248.798 327.931C248.742 327.794 248.658 327.669 248.554 327.564C248.449 327.459 248.324 327.376 248.187 327.32C248.05 327.263 247.903 327.234 247.755 327.234C247.606 327.235 247.46 327.264 247.323 327.321C247.186 327.379 247.062 327.462 246.957 327.568L246.214 328.311C246.318 328.206 246.443 328.122 246.579 328.065C246.716 328.008 246.863 327.978 247.011 327.978C247.16 327.978 247.307 328.007 247.444 328.063C247.581 328.12 247.705 328.203 247.81 328.308C247.915 328.413 247.998 328.537 248.055 328.674C248.111 328.812 248.14 328.959 248.14 329.107C248.14 329.255 248.11 329.402 248.053 329.539C247.996 329.676 247.912 329.8 247.807 329.905L248.55 329.161Z" fill="black"/>
<path d="M235.084 315.985L234.798 315.699L233.254 317.243L233.54 317.529L235.084 315.985Z" fill="#3F3D56"/>
<path d="M241.317 320.561L241.031 320.275L239.487 321.819L239.773 322.105L241.317 320.561Z" fill="#3F3D56"/>
<path d="M247.487 317.194L247.201 316.908L245.657 318.453L245.943 318.739L247.487 317.194Z" fill="#3F3D56"/>
<path d="M228.394 319.76L228.108 319.474L226.564 321.018L226.85 321.304L228.394 319.76Z" fill="#3F3D56"/>
<path d="M242.77 328.743L242.698 328.345L240.55 328.737L240.622 329.135L242.77 328.743Z" fill="#3F3D56"/>
<path d="M251.745 324.816L251.673 324.418L249.525 324.809L249.597 325.207L251.745 324.816Z" fill="#3F3D56"/>
<path d="M230.069 311.159L229.668 311.206L229.92 313.375L230.322 313.329L230.069 311.159Z" fill="#3F3D56"/>
<path d="M225.323 309.615L224.922 309.662L225.175 311.831L225.576 311.784L225.323 309.615Z" fill="#3F3D56"/>
<path d="M239.773 313.411L239.487 313.125L237.943 314.67L238.229 314.956L239.773 313.411Z" fill="white"/>
<path d="M251.553 321.266L251.267 320.98L249.723 322.525L250.009 322.811L251.553 321.266Z" fill="white"/>
<path d="M256.04 332.488L255.754 332.202L254.21 333.747L254.496 334.033L256.04 332.488Z" fill="white"/>
<path d="M223.991 313.526L223.705 313.24L222.161 314.784L222.447 315.07L223.991 313.526Z" fill="white"/>
<path d="M243.732 323.726L243.604 323.342L241.532 324.03L241.66 324.414L243.732 323.726Z" fill="white"/>
<path d="M236.699 328.131L236.571 327.747L234.499 328.434L234.626 328.818L236.699 328.131Z" fill="white"/>
<path d="M235.907 321.06L235.503 321.084L235.634 323.265L236.038 323.24L235.907 321.06Z" fill="white"/>
<path d="M236.936 308.706L236.532 308.73L236.663 310.91L237.067 310.886L236.936 308.706Z" fill="white"/>
<path d="M239.144 318.387L238.858 318.101L237.314 319.646L237.6 319.932L239.144 318.387Z" fill="#FF6584"/>
<path d="M252.606 337.464L252.32 337.178L250.776 338.723L251.062 339.009L252.606 337.464Z" fill="#FF6584"/>
<path d="M254.85 327.926L254.564 327.64L253.02 329.184L253.306 329.47L254.85 327.926Z" fill="#FF6584"/>
<path d="M230.93 315.154L230.54 315.05L229.975 317.159L230.365 317.264L230.93 315.154Z" fill="#FF6584"/>
<path d="M243.853 314.582L243.463 314.478L242.898 316.587L243.288 316.692L243.853 314.582Z" fill="#FF6584"/>
<path d="M241.795 309.435L241.404 309.33L240.839 311.439L241.229 311.544L241.795 309.435Z" fill="#FF6584"/>
<path d="M230.338 308.549L230.052 308.264L228.508 309.808L228.794 310.094L230.338 308.549Z" fill="#FF6584"/>
<path d="M522.273 222.458C522.273 221.267 521.8 220.125 520.959 219.284C520.117 218.442 518.976 217.969 517.786 217.969C516.595 217.969 515.454 218.442 514.612 219.284C513.771 220.125 513.298 221.267 513.298 222.458V423.69C513.298 424.88 513.771 426.022 514.612 426.864C515.454 427.706 516.595 428.178 517.786 428.178C518.976 428.178 520.117 427.706 520.959 426.864C521.8 426.022 522.273 424.88 522.273 423.69V223.761" fill="#3F3D56"/>
<path d="M579.516 233.137C571.632 218.265 558.48 206.874 542.638 201.197C526.795 195.52 509.404 195.966 493.873 202.447C478.342 208.928 465.791 220.978 458.679 236.234C451.567 251.49 450.407 268.853 455.427 284.92H463.802C465.485 284.92 466.865 286.794 466.865 289.089H468.401C470.09 289.089 471.47 290.963 471.47 293.258C471.47 295.547 470.09 297.426 468.401 297.426H466.865C466.861 297.775 466.825 298.122 466.758 298.464H473.77C475.458 298.464 476.838 300.344 476.838 302.633C476.838 304.928 475.458 306.802 473.77 306.802H467.072C477.556 319.947 492.567 328.706 509.166 331.364C525.765 334.023 542.759 330.39 556.822 321.177C570.885 311.964 581.006 297.833 585.203 281.55C589.4 265.267 587.372 248.003 579.516 233.137H579.516ZM533.598 289.1C529.402 291.47 524.663 292.711 519.844 292.702C518.879 292.702 517.915 292.653 516.955 292.556C510.321 291.863 504.153 288.82 499.565 283.976C494.977 279.133 492.271 272.808 491.935 266.144C491.6 259.48 493.657 252.916 497.736 247.636C501.815 242.356 507.646 238.709 514.177 237.352C520.709 235.996 527.51 237.02 533.352 240.239C539.195 243.459 543.695 248.661 546.039 254.908C548.384 261.155 548.418 268.034 546.137 274.304C543.855 280.574 539.408 285.822 533.598 289.1V289.1Z" fill="#D77FA1"/>
<path opacity="0.2" d="M476.654 301.231C476.776 300.774 476.838 300.302 476.838 299.829C476.838 297.536 475.457 295.661 473.77 295.661H470.9C470.685 296.156 470.339 296.582 469.898 296.893C469.457 297.204 468.939 297.388 468.401 297.424H466.867C466.864 297.774 466.827 298.123 466.757 298.466H473.77C475.095 298.466 476.227 299.625 476.654 301.231Z" fill="black"/>
<path opacity="0.2" d="M468.401 289.088C469.726 289.088 470.858 290.246 471.285 291.853C471.407 291.396 471.469 290.924 471.469 290.45C471.469 288.158 470.088 286.282 468.401 286.282H466.867C466.867 283.99 465.486 282.114 463.799 282.114H455.427C453.518 275.994 452.491 269.632 452.378 263.222C452.367 263.721 452.353 264.219 452.353 264.721C452.346 271.571 453.383 278.382 455.427 284.92H463.799C465.486 284.92 466.867 286.795 466.867 289.088H468.401Z" fill="black"/>
<path opacity="0.2" d="M519.847 329.428C510.322 329.439 500.904 327.427 492.214 323.527C483.524 319.626 475.76 313.926 469.436 306.802H467.07C475.794 317.75 487.704 325.714 501.152 329.592C514.6 333.47 528.921 333.07 542.132 328.448C555.343 323.825 566.791 315.209 574.891 303.792C582.99 292.374 587.341 278.721 587.341 264.721C587.341 264.299 587.329 263.879 587.321 263.459C586.918 281.092 579.632 297.868 567.022 310.197C554.412 322.525 537.48 329.428 519.847 329.428Z" fill="black"/>
<path opacity="0.2" d="M519.844 231.128C513.202 231.13 506.71 233.101 501.188 236.792C495.666 240.484 491.363 245.731 488.822 251.869C486.281 258.008 485.617 264.762 486.913 271.278C488.21 277.794 491.408 283.779 496.105 288.476C500.802 293.173 506.786 296.372 513.3 297.668C519.815 298.964 526.567 298.298 532.703 295.755C538.839 293.213 544.083 288.907 547.773 283.383C551.463 277.859 553.433 271.364 553.433 264.721C553.422 255.814 549.88 247.275 543.583 240.977C537.286 234.679 528.749 231.137 519.844 231.128V231.128ZM533.598 289.1C529.402 291.47 524.663 292.711 519.844 292.702C518.879 292.702 517.915 292.653 516.955 292.556C510.321 291.863 504.153 288.82 499.565 283.976C494.977 279.133 492.271 272.808 491.935 266.144C491.6 259.48 493.657 252.916 497.736 247.636C501.815 242.356 507.646 238.709 514.178 237.352C520.709 235.996 527.51 237.02 533.353 240.239C539.195 243.459 543.695 248.661 546.039 254.908C548.384 261.155 548.419 268.034 546.137 274.304C543.856 280.574 539.408 285.822 533.598 289.1Z" fill="black"/>
<path d="M579.515 232.016V243.247C579.516 244.067 579.271 244.868 578.812 245.548C578.353 246.227 577.702 246.754 576.941 247.06C576.181 247.366 575.346 247.437 574.545 247.264C573.743 247.091 573.012 246.682 572.445 246.09V247.37C572.445 248.664 571.931 249.905 571.016 250.82C570.102 251.735 568.861 252.249 567.568 252.249C566.274 252.249 565.034 251.735 564.119 250.82C563.204 249.905 562.691 248.664 562.691 247.37V246.303C562.101 246.834 561.369 247.183 560.586 247.306C559.802 247.43 558.999 247.323 558.274 247C557.55 246.677 556.934 246.15 556.503 245.484C556.071 244.818 555.842 244.041 555.843 243.247L555.648 231.31V228.556C555.648 228.115 555.472 227.692 555.161 227.38C554.849 227.068 554.426 226.893 553.985 226.893C553.544 226.893 553.121 227.068 552.809 227.38C552.497 227.692 552.322 228.115 552.322 228.556V231.31L552.126 241.29C552.126 242.38 551.693 243.425 550.923 244.196C550.153 244.966 549.108 245.399 548.018 245.399C546.928 245.399 545.883 244.966 545.113 244.196C544.342 243.425 543.91 242.38 543.91 241.29L543.407 231.31V226.208C543.407 225.485 543.12 224.792 542.609 224.28C542.098 223.769 541.404 223.482 540.682 223.482C539.959 223.482 539.266 223.769 538.755 224.28C538.244 224.792 537.956 225.485 537.956 226.208V231.31L537.649 241.29C537.65 242.145 537.384 242.978 536.888 243.674C536.393 244.371 535.693 244.895 534.885 245.174C534.077 245.453 533.203 245.473 532.383 245.232C531.564 244.99 530.84 244.499 530.313 243.826C529.663 244.657 528.718 245.205 527.675 245.357C526.631 245.508 525.569 245.252 524.71 244.64V247.37C524.71 248.664 524.196 249.905 523.282 250.82C522.367 251.734 521.126 252.248 519.833 252.248C518.539 252.248 517.299 251.734 516.384 250.82C515.47 249.905 514.956 248.664 514.956 247.37V238.942C514.956 239.882 514.634 240.793 514.043 241.525C513.453 242.256 512.629 242.763 511.71 242.96C510.791 243.157 509.833 243.033 508.994 242.608C508.156 242.184 507.488 241.484 507.103 240.626V247.37C507.102 248.663 506.587 249.902 505.673 250.816C504.758 251.73 503.518 252.243 502.226 252.243C500.933 252.243 499.693 251.73 498.779 250.816C497.864 249.902 497.35 248.663 497.349 247.37V231.31H497.321V247.37C497.321 248.664 496.807 249.905 495.893 250.82C494.978 251.735 493.738 252.249 492.444 252.249C491.151 252.249 489.91 251.735 488.995 250.82C488.081 249.905 487.567 248.664 487.567 247.37V240.683C487.171 241.53 486.499 242.216 485.66 242.629C484.822 243.042 483.868 243.156 482.956 242.953C482.043 242.75 481.228 242.242 480.643 241.513C480.059 240.783 479.741 239.876 479.741 238.942V231.31H479.323V245.022C479.323 246.316 478.809 247.556 477.894 248.471C476.98 249.386 475.739 249.9 474.446 249.9C473.152 249.9 471.912 249.386 470.997 248.471C470.082 247.556 469.568 246.316 469.568 245.022V238.942C469.568 240.031 469.136 241.077 468.365 241.847C467.595 242.618 466.55 243.051 465.46 243.051C464.371 243.051 463.326 242.618 462.555 241.847C461.785 241.077 461.352 240.031 461.352 238.942V229.895C467.377 219.439 476.093 210.789 486.594 204.845C497.094 198.901 508.996 195.88 521.059 196.096C533.122 196.313 544.907 199.759 555.188 206.076C565.468 212.393 573.869 221.35 579.515 232.016V232.016Z" fill="#E6E6E6"/>
<path opacity="0.2" d="M492.444 249.9C491.804 249.9 491.169 249.774 490.578 249.529C489.986 249.284 489.448 248.924 488.995 248.471C488.542 248.018 488.183 247.481 487.938 246.889C487.693 246.297 487.567 245.662 487.567 245.022V247.566C487.567 248.859 488.081 250.1 488.995 251.015C489.91 251.93 491.151 252.444 492.444 252.444C493.738 252.444 494.978 251.93 495.893 251.015C496.807 250.1 497.321 248.859 497.321 247.566V245.022C497.321 245.662 497.195 246.297 496.95 246.889C496.705 247.481 496.346 248.018 495.893 248.471C495.44 248.924 494.902 249.284 494.311 249.529C493.719 249.774 493.085 249.9 492.444 249.9V249.9Z" fill="black"/>
<path opacity="0.2" d="M502.226 249.9C501.585 249.9 500.951 249.774 500.359 249.529C499.768 249.284 499.23 248.924 498.777 248.471C498.324 248.018 497.965 247.481 497.72 246.889C497.475 246.297 497.349 245.662 497.349 245.022V247.566C497.349 248.859 497.862 250.1 498.777 251.015C499.692 251.93 500.932 252.444 502.226 252.444C503.519 252.444 504.76 251.93 505.674 251.015C506.589 250.1 507.103 248.859 507.103 247.566V245.022C507.103 245.662 506.977 246.297 506.732 246.889C506.487 247.481 506.127 248.018 505.675 248.471C505.222 248.924 504.684 249.284 504.092 249.529C503.501 249.774 502.866 249.9 502.226 249.9Z" fill="black"/>
<path opacity="0.2" d="M487.567 238.335C487.171 239.182 486.499 239.868 485.66 240.281C484.822 240.693 483.868 240.808 482.956 240.605C482.043 240.402 481.228 239.894 480.643 239.164C480.059 238.435 479.741 237.528 479.741 236.593V239.137C479.741 240.072 480.059 240.979 480.643 241.708C481.228 242.438 482.043 242.946 482.956 243.149C483.868 243.352 484.822 243.237 485.66 242.825C486.499 242.412 487.171 241.726 487.567 240.879V238.335Z" fill="black"/>
<path opacity="0.2" d="M497.349 228.961H497.321V231.505H497.349V228.961Z" fill="black"/>
<path opacity="0.2" d="M469.568 236.593C469.568 237.683 469.136 238.728 468.365 239.499C467.595 240.27 466.55 240.703 465.46 240.703C464.371 240.703 463.326 240.27 462.555 239.499C461.785 238.728 461.352 237.683 461.352 236.593V239.137C461.352 240.227 461.785 241.272 462.555 242.043C463.326 242.814 464.371 243.247 465.46 243.247C466.55 243.247 467.595 242.814 468.365 242.043C469.136 241.272 469.568 240.227 469.568 239.137V236.593Z" fill="black"/>
<path opacity="0.2" d="M479.741 228.961H479.323V231.505H479.741V228.961Z" fill="black"/>
<path opacity="0.2" d="M474.446 247.552C473.805 247.552 473.171 247.426 472.579 247.181C471.988 246.936 471.45 246.576 470.997 246.123C470.544 245.67 470.185 245.132 469.94 244.54C469.695 243.948 469.569 243.314 469.569 242.673V245.217C469.569 246.511 470.082 247.752 470.997 248.667C471.912 249.582 473.152 250.096 474.446 250.096C475.739 250.096 476.98 249.582 477.894 248.667C478.809 247.752 479.323 246.511 479.323 245.217V242.673C479.323 243.314 479.197 243.948 478.952 244.54C478.707 245.132 478.347 245.67 477.895 246.123C477.442 246.576 476.904 246.936 476.312 247.181C475.72 247.426 475.086 247.552 474.446 247.552V247.552Z" fill="black"/>
<path opacity="0.2" d="M519.833 249.9C519.192 249.9 518.558 249.774 517.967 249.529C517.375 249.284 516.837 248.924 516.384 248.471C515.931 248.018 515.572 247.481 515.327 246.889C515.082 246.297 514.956 245.662 514.956 245.022V247.566C514.956 248.859 515.47 250.1 516.384 251.015C517.299 251.93 518.539 252.444 519.833 252.444C521.126 252.444 522.367 251.93 523.282 251.015C524.196 250.1 524.71 248.859 524.71 247.566V245.022C524.71 245.662 524.584 246.297 524.339 246.889C524.094 247.481 523.735 248.018 523.282 248.471C522.829 248.924 522.291 249.284 521.699 249.529C521.108 249.774 520.473 249.9 519.833 249.9Z" fill="black"/>
<path opacity="0.2" d="M555.648 226.208C555.648 225.767 555.473 225.344 555.161 225.032C554.849 224.72 554.426 224.545 553.985 224.545C553.544 224.545 553.121 224.72 552.809 225.032C552.497 225.344 552.322 225.767 552.322 226.208V228.752C552.322 228.311 552.497 227.888 552.809 227.576C553.121 227.264 553.544 227.089 553.985 227.089C554.426 227.089 554.849 227.264 555.161 227.576C555.473 227.888 555.648 228.311 555.648 228.752V226.208Z" fill="black"/>
<path opacity="0.2" d="M514.956 236.593C514.956 237.533 514.634 238.445 514.044 239.176C513.453 239.908 512.629 240.414 511.71 240.611C510.791 240.809 509.833 240.684 508.994 240.26C508.156 239.835 507.488 239.136 507.103 238.278V240.822C507.488 241.68 508.156 242.379 508.994 242.804C509.833 243.228 510.791 243.353 511.71 243.155C512.629 242.958 513.453 242.452 514.044 241.72C514.634 240.989 514.956 240.077 514.956 239.137V236.593Z" fill="black"/>
<path opacity="0.2" d="M548.018 243.051C547.479 243.051 546.944 242.945 546.446 242.738C545.947 242.532 545.494 242.229 545.113 241.848C544.731 241.466 544.429 241.013 544.222 240.514C544.016 240.016 543.91 239.481 543.91 238.942L543.407 228.961V231.505L543.91 241.486C543.91 242.575 544.343 243.621 545.113 244.391C545.884 245.162 546.929 245.595 548.018 245.595C549.108 245.595 550.153 245.162 550.923 244.391C551.694 243.621 552.126 242.575 552.126 241.486L552.322 231.505V228.961L552.126 238.942C552.127 239.481 552.02 240.016 551.814 240.514C551.607 241.013 551.305 241.466 550.923 241.848C550.542 242.229 550.089 242.532 549.59 242.738C549.092 242.945 548.558 243.051 548.018 243.051V243.051Z" fill="black"/>
<path opacity="0.2" d="M575.407 245.008C574.853 245.008 574.305 244.896 573.796 244.678C573.287 244.461 572.827 244.142 572.445 243.742V245.022C572.445 246.316 571.931 247.556 571.016 248.471C570.102 249.386 568.861 249.9 567.568 249.9C566.274 249.9 565.034 249.386 564.119 248.471C563.204 247.556 562.691 246.316 562.691 245.022V243.955C562.101 244.486 561.369 244.834 560.586 244.958C559.802 245.082 558.999 244.975 558.274 244.652C557.55 244.328 556.934 243.801 556.503 243.135C556.071 242.469 555.842 241.692 555.843 240.898L555.648 228.961V231.505L555.843 243.442C555.842 244.236 556.071 245.013 556.503 245.679C556.934 246.345 557.55 246.872 558.274 247.196C558.999 247.519 559.802 247.625 560.586 247.502C561.369 247.378 562.101 247.03 562.691 246.499V247.566C562.691 248.859 563.204 250.1 564.119 251.015C565.034 251.93 566.274 252.444 567.568 252.444C568.861 252.444 570.102 251.93 571.016 251.015C571.931 250.1 572.445 248.859 572.445 247.566V246.286C573.012 246.878 573.743 247.287 574.545 247.46C575.346 247.632 576.181 247.561 576.941 247.256C577.702 246.95 578.353 246.423 578.812 245.743C579.271 245.064 579.516 244.262 579.515 243.442V240.898C579.515 241.438 579.409 241.973 579.203 242.471C578.996 242.97 578.694 243.423 578.312 243.804C577.931 244.186 577.478 244.489 576.979 244.695C576.481 244.902 575.946 245.008 575.407 245.008V245.008Z" fill="black"/>
<path opacity="0.2" d="M533.541 243.051C532.919 243.051 532.305 242.909 531.746 242.637C531.186 242.364 530.697 241.968 530.313 241.478C529.663 242.309 528.718 242.857 527.675 243.008C526.631 243.16 525.569 242.903 524.71 242.292V244.836C525.569 245.447 526.631 245.704 527.675 245.552C528.718 245.401 529.663 244.853 530.313 244.022C530.84 244.694 531.564 245.186 532.384 245.427C533.203 245.669 534.078 245.649 534.885 245.37C535.693 245.091 536.393 244.566 536.889 243.87C537.384 243.174 537.65 242.34 537.649 241.486L537.957 231.505V228.961L537.649 238.942C537.65 239.481 537.543 240.016 537.337 240.514C537.13 241.013 536.828 241.466 536.446 241.848C536.065 242.229 535.612 242.532 535.113 242.738C534.615 242.945 534.081 243.051 533.541 243.051V243.051Z" fill="black"/>
<path opacity="0.2" d="M543.407 223.86C543.407 223.137 543.12 222.443 542.609 221.932C542.098 221.421 541.404 221.134 540.682 221.134C539.959 221.134 539.266 221.421 538.755 221.932C538.244 222.443 537.957 223.137 537.957 223.86V226.404C537.957 225.681 538.244 224.987 538.755 224.476C539.266 223.965 539.959 223.678 540.682 223.678C541.404 223.678 542.098 223.965 542.609 224.476C543.12 224.987 543.407 225.681 543.407 226.404V223.86Z" fill="black"/>
<path d="M497.838 224.363H496.86V229.646H497.838V224.363Z" fill="#3F3D56"/>
<path d="M516.325 221.525H515.347V226.809H516.325V221.525Z" fill="#3F3D56"/>
<path d="M567.973 224.656H566.995V229.94H567.973V224.656Z" fill="#3F3D56"/>
<path d="M492.849 242.268H491.871V247.552H492.849V242.268Z" fill="#3F3D56"/>
<path d="M532.805 233.036L532 232.479L528.995 236.824L529.799 237.381L532.805 233.036Z" fill="#3F3D56"/>
<path d="M481.006 224.688L480.399 225.455L484.541 228.734L485.148 227.966L481.006 224.688Z" fill="#3F3D56"/>
<path d="M538.523 204.923L537.916 205.691L542.058 208.969L542.665 208.202L538.523 204.923Z" fill="#3F3D56"/>
<path d="M470.245 230.169L469.638 230.937L473.781 234.215L474.388 233.448L470.245 230.169Z" fill="#3F3D56"/>
<path d="M501.457 211.936H500.479V217.22H501.457V211.936Z" fill="white"/>
<path d="M474.655 239.137H473.677V244.421H474.655V239.137Z" fill="white"/>
<path d="M520.434 204.304H519.455V209.588H520.434V204.304Z" fill="white"/>
<path d="M567.386 237.376H566.408V242.66H567.386V237.376Z" fill="white"/>
<path d="M525.87 222.808L524.996 222.369L522.627 227.092L523.501 227.53L525.87 222.808Z" fill="white"/>
<path d="M521.37 242.377L520.496 241.938L518.127 246.661L519.002 247.099L521.37 242.377Z" fill="white"/>
<path d="M575.366 233.571L574.491 233.132L572.122 237.855L572.997 238.293L575.366 233.571Z" fill="white"/>
<path d="M507.924 231.637L507.275 232.369L511.228 235.874L511.876 235.142L507.924 231.637Z" fill="white"/>
<path d="M488.556 208.741L487.907 209.473L491.86 212.979L492.509 212.246L488.556 208.741Z" fill="white"/>
<path d="M552.92 217.547L552.271 218.28L556.223 221.785L556.872 221.053L552.92 217.547Z" fill="white"/>
<path d="M529.248 200.327L528.599 201.059L532.552 204.564L533.201 203.832L529.248 200.327Z" fill="white"/>
<path d="M508.891 221.525H507.913V226.809H508.891V221.525Z" fill="#FF6584"/>
<path d="M564.075 224.862L563.175 224.479L561.111 229.343L562.011 229.725L564.075 224.862Z" fill="#FF6584"/>
<path d="M489.311 230.049L488.464 230.538L491.105 235.114L491.952 234.625L489.311 230.049Z" fill="#FF6584"/>
<path d="M545.263 226.331L544.416 226.82L547.057 231.396L547.904 230.907L545.263 226.331Z" fill="#FF6584"/>
<path d="M510.439 206.958L509.592 207.447L512.233 212.023L513.08 211.533L510.439 206.958Z" fill="#FF6584"/>
<path d="M551.914 205.979L551.067 206.468L553.708 211.044L554.555 210.555L551.914 205.979Z" fill="#FF6584"/>
<path d="M498.114 201.674L497.267 202.163L499.908 206.739L500.756 206.25L498.114 201.674Z" fill="#FF6584"/>
<path d="M533.345 210.958H532.367V216.242H533.345V210.958Z" fill="#FF6584"/>
<path d="M477.003 219.764H476.024V225.048H477.003V219.764Z" fill="#FF6584"/>
<path d="M286.053 412.812C299.069 412.812 309.619 402.258 309.619 389.239C309.619 376.221 299.069 365.667 286.053 365.667C273.038 365.667 262.488 376.221 262.488 389.239C262.488 402.258 273.038 412.812 286.053 412.812Z" fill="#2F2E41"/>
<path d="M295.155 419.431L302.2 418.155L299.915 405.53L292.87 406.806L295.155 419.431Z" fill="#2F2E41"/>
<path d="M281.066 421.982L288.111 420.707L285.826 408.081L278.781 409.357L281.066 421.982Z" fill="#2F2E41"/>
<path d="M284.806 424.639C287.32 422.509 288.711 420.018 287.912 419.075C287.114 418.132 284.428 419.094 281.914 421.224C279.399 423.354 278.008 425.845 278.807 426.788C279.606 427.732 282.291 426.769 284.806 424.639Z" fill="#2F2E41"/>
<path d="M298.601 422.141C301.116 420.011 302.507 417.52 301.708 416.577C300.91 415.633 298.224 416.596 295.71 418.726C293.195 420.856 291.804 423.347 292.603 424.29C293.401 425.233 296.087 424.271 298.601 422.141Z" fill="#2F2E41"/>
<path d="M284.404 391.53C288.852 391.53 292.458 387.923 292.458 383.473C292.458 379.024 288.852 375.417 284.404 375.417C279.956 375.417 276.35 379.024 276.35 383.473C276.35 387.923 279.956 391.53 284.404 391.53Z" fill="white"/>
<path d="M281.093 383.271C282.576 383.271 283.778 382.069 283.778 380.586C283.778 379.102 282.576 377.9 281.093 377.9C279.611 377.9 278.409 379.102 278.409 380.586C278.409 382.069 279.611 383.271 281.093 383.271Z" fill="#3F3D56"/>
<path d="M304.644 363.595C304.998 354.868 297.479 347.476 287.849 347.085C278.219 346.694 270.126 353.451 269.771 362.178C269.417 370.905 276.111 372.888 285.741 373.279C295.37 373.67 304.289 372.322 304.644 363.595Z" fill="#CFCCE0"/>
<path d="M275.779 387.578C276.235 385.586 271.463 382.793 265.12 381.338C258.777 379.884 253.265 380.32 252.809 382.311C252.352 384.303 257.124 387.097 263.467 388.551C269.81 390.006 275.322 389.57 275.779 387.578Z" fill="#2F2E41"/>
<path d="M322.038 395.273C322.494 393.281 317.722 390.488 311.379 389.033C305.036 387.579 299.524 388.015 299.068 390.006C298.611 391.998 303.383 394.792 309.726 396.246C316.069 397.701 321.581 397.265 322.038 395.273Z" fill="#2F2E41"/>
<path d="M292.526 398.529C292.652 399.223 292.64 399.936 292.491 400.625C292.342 401.315 292.058 401.968 291.656 402.548C291.254 403.128 290.742 403.623 290.149 404.005C289.556 404.387 288.893 404.648 288.199 404.774C287.505 404.9 286.793 404.887 286.104 404.738C285.414 404.588 284.761 404.304 284.182 403.902C283.602 403.499 283.108 402.987 282.726 402.393C282.345 401.8 282.084 401.137 281.959 400.443C281.43 397.524 283.687 396.491 286.605 395.962C289.523 395.434 291.998 395.61 292.526 398.529Z" fill="white"/>
<path d="M420 307.459C422.381 301.226 422.726 295.567 420.77 294.819C418.814 294.071 415.297 298.518 412.916 304.751C410.534 310.984 410.189 316.643 412.145 317.391C414.101 318.139 417.618 313.692 420 307.459Z" fill="#2F2E41"/>
<path d="M402.385 417.952C415.727 417.952 426.543 407.133 426.543 393.788C426.543 380.442 415.727 369.623 402.385 369.623C389.043 369.623 378.228 380.442 378.228 393.788C378.228 407.133 389.043 417.952 402.385 417.952Z" fill="#2F2E41"/>
<path d="M398.716 412.752H391.376V425.905H398.716V412.752Z" fill="#2F2E41"/>
<path d="M413.394 412.752H406.055V425.905H413.394V412.752Z" fill="#2F2E41"/>
<path d="M397.492 428.352C400.87 428.352 403.608 427.325 403.608 426.058C403.608 424.791 400.87 423.764 397.492 423.764C394.115 423.764 391.376 424.791 391.376 426.058C391.376 427.325 394.115 428.352 397.492 428.352Z" fill="#2F2E41"/>
<path d="M412.171 428.046C415.548 428.046 418.286 427.019 418.286 425.752C418.286 424.485 415.548 423.458 412.171 423.458C408.793 423.458 406.055 424.485 406.055 425.752C406.055 427.019 408.793 428.046 412.171 428.046Z" fill="#2F2E41"/>
<path d="M402.997 395.929C407.557 395.929 411.253 392.231 411.253 387.67C411.253 383.109 407.557 379.411 402.997 379.411C398.437 379.411 394.74 383.109 394.74 387.67C394.74 392.231 398.437 395.929 402.997 395.929Z" fill="white"/>
<path d="M402.997 390.423C404.517 390.423 405.749 389.19 405.749 387.67C405.749 386.15 404.517 384.917 402.997 384.917C401.477 384.917 400.245 386.15 400.245 387.67C400.245 389.19 401.477 390.423 402.997 390.423Z" fill="#3F3D56"/>
<path d="M378.951 371.315C377.001 362.577 383.236 353.747 392.878 351.594C402.521 349.44 411.919 354.778 413.869 363.516C415.82 372.254 409.43 375.477 399.787 377.631C390.145 379.785 380.902 380.054 378.951 371.315Z" fill="#CFCCE0"/>
<path d="M394.129 348.517C407.471 348.517 418.286 337.699 418.286 324.353C418.286 311.007 407.471 300.188 394.129 300.188C380.787 300.188 369.971 311.007 369.971 324.353C369.971 337.699 380.787 348.517 394.129 348.517Z" fill="#2F2E41"/>
<path d="M390.459 343.317H383.12V356.47H390.459V343.317Z" fill="#2F2E41"/>
<path d="M405.137 343.317H397.798V356.47H405.137V343.317Z" fill="#2F2E41"/>
<path d="M389.236 358.917C392.614 358.917 395.352 357.89 395.352 356.623C395.352 355.356 392.614 354.329 389.236 354.329C385.858 354.329 383.12 355.356 383.12 356.623C383.12 357.89 385.858 358.917 389.236 358.917Z" fill="#2F2E41"/>
<path d="M403.914 358.611C407.292 358.611 410.03 357.584 410.03 356.317C410.03 355.05 407.292 354.023 403.914 354.023C400.536 354.023 397.798 355.05 397.798 356.317C397.798 357.584 400.536 358.611 403.914 358.611Z" fill="#2F2E41"/>
<path d="M394.74 326.494C399.3 326.494 402.997 322.796 402.997 318.235C402.997 313.674 399.3 309.977 394.74 309.977C390.18 309.977 386.484 313.674 386.484 318.235C386.484 322.796 390.18 326.494 394.74 326.494Z" fill="white"/>
<path d="M394.74 320.988C396.26 320.988 397.492 319.756 397.492 318.235C397.492 316.715 396.26 315.482 394.74 315.482C393.22 315.482 391.988 316.715 391.988 318.235C391.988 319.756 393.22 320.988 394.74 320.988Z" fill="#3F3D56"/>
<path d="M370.695 301.881C368.744 293.142 374.98 284.313 384.622 282.159C394.264 280.005 403.662 285.343 405.613 294.082C407.564 302.82 401.173 306.043 391.531 308.196C381.889 310.35 372.646 310.619 370.695 301.881Z" fill="#CFCCE0"/>
<path d="M377.833 318.318C378.73 316.425 374.571 312.573 368.544 309.713C362.517 306.854 356.903 306.07 356.006 307.963C355.108 309.856 359.267 313.708 365.294 316.568C371.322 319.427 376.935 320.211 377.833 318.318Z" fill="#2F2E41"/>
<path d="M382.262 333.07C382.262 335.436 388.35 340.106 395.106 340.106C401.861 340.106 408.195 333.447 408.195 331.082C408.195 328.717 401.861 331.541 395.106 331.541C388.35 331.541 382.262 330.705 382.262 333.07Z" fill="white"/>
<path d="M464.675 357.545C466.534 357.545 468.041 356.038 468.041 354.178C468.041 352.319 466.534 350.812 464.675 350.812C462.816 350.812 461.31 352.319 461.31 354.178C461.31 356.038 462.816 357.545 464.675 357.545Z" fill="#D77FA1"/>
<path d="M473.842 330.368C475.701 330.368 477.207 328.861 477.207 327.001C477.207 325.142 475.701 323.635 473.842 323.635C471.983 323.635 470.476 325.142 470.476 327.001C470.476 328.861 471.983 330.368 473.842 330.368Z" fill="#D77FA1"/>
<path d="M465.46 316.476C467.319 316.476 468.826 314.969 468.826 313.11C468.826 311.25 467.319 309.743 465.46 309.743C463.602 309.743 462.095 311.25 462.095 313.11C462.095 314.969 463.602 316.476 465.46 316.476Z" fill="#D77FA1"/>
<path d="M436.407 407.35L438.218 413.901L449.951 410.657L448.141 404.106L436.407 407.35Z" fill="#2F2E41"/>
<path d="M437.22 415.057C438.35 414.744 438.591 412.047 437.758 409.032C436.925 406.017 435.333 403.827 434.203 404.139C433.072 404.452 432.832 407.149 433.665 410.164C434.498 413.179 436.09 415.369 437.22 415.057Z" fill="#2F2E41"/>
<path d="M473.445 384.821C474.274 378.7 473.389 373.526 471.468 373.265C469.547 373.005 467.317 377.756 466.487 383.878C465.658 390 466.543 395.173 468.464 395.434C470.385 395.694 472.615 390.943 473.445 384.821Z" fill="#2F2E41"/>
<path d="M467.777 427.661C480.128 427.661 490.141 417.645 490.141 405.29C490.141 392.935 480.128 382.919 467.777 382.919C455.425 382.919 445.412 392.935 445.412 405.29C445.412 417.645 455.425 427.661 467.777 427.661Z" fill="#2F2E41"/>
<path d="M436.407 403.386L438.218 409.936L449.951 406.692L448.141 400.142L436.407 403.386Z" fill="#2F2E41"/>
<path d="M437.219 411.095C438.35 410.783 438.59 408.085 437.757 405.071C436.924 402.056 435.332 399.865 434.202 400.178C433.072 400.49 432.831 403.188 433.664 406.202C434.497 409.217 436.089 411.408 437.219 411.095Z" fill="#2F2E41"/>
<path d="M473.649 400.12C477.871 400.12 481.293 396.697 481.293 392.475C481.293 388.252 477.871 384.829 473.649 384.829C469.428 384.829 466.006 388.252 466.006 392.475C466.006 396.697 469.428 400.12 473.649 400.12Z" fill="white"/>
<path d="M476.094 391.646C477.501 391.646 478.642 390.505 478.642 389.097C478.642 387.69 477.501 386.549 476.094 386.549C474.687 386.549 473.546 387.69 473.546 389.097C473.546 390.505 474.687 391.646 476.094 391.646Z" fill="#3F3D56"/>
<path d="M493.604 420.663C501.88 420.249 508.218 412.506 507.761 403.368C507.304 394.23 500.224 387.159 491.948 387.573C483.672 387.987 482.373 394.486 482.83 403.624C483.287 412.761 485.327 421.078 493.604 420.663Z" fill="#CFCCE0"/>
<path d="M458.637 395.825C457.289 395.934 455.954 395.503 454.925 394.628C453.895 393.752 453.255 392.503 453.146 391.155C453.037 389.808 453.468 388.472 454.343 387.443C455.219 386.413 456.467 385.773 457.814 385.664C460.62 385.437 461.385 387.664 461.612 390.47C461.839 393.276 461.442 395.598 458.637 395.825Z" fill="white"/>
<path d="M465.05 390.137C465.88 384.015 464.995 378.842 463.074 378.581C461.152 378.321 458.922 383.072 458.093 389.194C457.264 395.315 458.148 400.489 460.07 400.749C461.991 401.01 464.221 396.258 465.05 390.137Z" fill="#2F2E41"/>
<path d="M462.992 379.427C464.851 379.427 466.358 377.92 466.358 376.061C466.358 374.201 464.851 372.694 462.992 372.694C461.134 372.694 459.627 374.201 459.627 376.061C459.627 377.92 461.134 379.427 462.992 379.427Z" fill="#D77FA1"/>
<path d="M443.38 298.62C443.457 298.028 443.407 297.426 443.232 296.855C443.057 296.284 442.762 295.757 442.367 295.31C441.972 294.863 441.485 294.505 440.941 294.261C440.396 294.018 439.805 293.893 439.208 293.897H437.875C438.198 293.293 438.367 292.618 438.367 291.933C438.363 290.818 437.919 289.75 437.131 288.961C436.343 288.173 435.274 287.729 434.16 287.725H420.136C419.021 287.725 417.951 288.169 417.162 288.958C416.373 289.747 415.929 290.817 415.929 291.933C415.929 293.049 416.373 294.12 417.162 294.909C417.951 295.698 419.021 296.142 420.136 296.142H421.469C421.147 296.746 420.978 297.42 420.978 298.105C420.981 298.98 421.256 299.833 421.765 300.545C422.273 301.257 422.991 301.793 423.817 302.079C423.74 302.671 423.791 303.273 423.965 303.844C424.14 304.415 424.435 304.942 424.83 305.389C425.225 305.837 425.712 306.194 426.257 306.438C426.802 306.682 427.392 306.806 427.989 306.802H442.013C443.008 306.803 443.971 306.451 444.731 305.807C445.491 305.164 445.998 304.273 446.162 303.291C446.326 302.309 446.137 301.3 445.627 300.445C445.118 299.59 444.321 298.943 443.38 298.62V298.62Z" fill="#D77FA1"/>
<path d="M255.207 329.024L254.903 328.72L253.26 330.363L253.564 330.668L255.207 329.024Z" fill="#3F3D56"/>
</g>
<defs>
<clipPath id="clip0_51_206">
<rect width="500" height="322" fill="white" transform="translate(87.3406 106.352)"/>
</clipPath>
</defs>
</svg>
